<svg xmlns="http://www.w3.org/2000/svg" viewBox="0 0 358.47 741.91"><defs><style>.cls-1{fill:#efb5af;}.cls-2{fill:#d3e1f4;}.cls-3{fill:#f6851e;}.cls-14,.cls-15,.cls-4,.cls-5{fill:none;stroke-miterlimit:10;stroke-width:3px;}.cls-4{stroke:#af5127;}.cls-5{stroke:#aa6243;}.cls-6{fill:#ddaa7c;}.cls-7{fill:#bf8a5e;}.cls-8{fill:#42637d;}.cls-9{fill:#d26665;}.cls-10{fill:#f3a396;}.cls-11{fill:#f9d478;}.cls-12{fill:#f8f8f8;}.cls-13{fill:#d6a061;}.cls-14{stroke:#1e3744;}.cls-15{stroke:#4e7687;}.cls-16{fill:#f88720;}.cls-17{fill:#2b5168;}.cls-18{fill:#f9fffc;}.cls-19{fill:#20353f;}</style></defs><title>Строители</title><g id="_1" data-name="1"><path class="cls-1" d="M127,224.94s-15.32-.45-16.61,6.63-17.2,107.52-17.2,107.52c-.61,6.52,5.37,14.81,17.35,15h0c7.63.91,14.81-3.93,16-10.79l18-100.85c1-9.43-7-17.43-17.54-17.5h0"/><path class="cls-2" d="M152.08,235.18c-1.55-11.58-13.32-19.56-26.29-17.82-11.51,1.55-20.07,10.22-20.78,20.24h0l-4.53,42.21,46.82,3.31,4.57-41.54A19.29,19.29,0,0,0,152.08,235.18Z"/><path class="cls-1" d="M107.12,332.69l-14-44.29-27.72,3.44s8.66,76.39,35.09,76.39c34,0,27.56-49.18,27.56-49.18Z"/><path class="cls-3" d="M75.71,222.9c-4.42,6.32-2.21,16-1.59,18.4-4.24.62-14,.82-18.12,5.36-5.43,6,.67,15.5.67,15.5s-3.19,6.86-.21,10.94c0,0,2,10.45,6.49,11.44l.81,4.75-.54,22.5L100.47,301,92,284.25s10.17-3.29,5.29-23.78-5.5-30.55-4.48-35.72S81,215.4,75.71,222.9Z"/><path class="cls-4" d="M71.51,257.9s11.83-6.54,18.17,2.06c4.76,6.45-2,10.55-2,10.55"/><path class="cls-4" d="M72,270.9s12.93-5.19,16.64.59.23,9.31-2.42,9.92-6.9-1.65-6.9-1.65"/><path class="cls-4" d="M74,242.08s12.86-3.13,14.79,4.68c1,4-.27,6.58-2.65,9.5"/><path class="cls-5" d="M98.07,304.09s4.81,16.59,7.94,31"/><path class="cls-6" d="M225,658.61v17.78h79.72v-.48a10.82,10.82,0,0,0-.29-2.2,20.77,20.77,0,0,0-18.09-16.17l-25.45-2.8a4.11,4.11,0,0,0-4.05.39c-4.78,4.17-10,11-24.63,3.59C231.15,658.19,225.24,657.61,225,658.61Z"/><rect class="cls-7" x="225" y="676.39" width="79.71" height="12.33"/><path class="cls-1" d="M257.77,223.24s14.56,0,15.81,7.06,17.36,107.28,17.36,107.28c.57,6.52-5.46,14.78-17.44,14.88h0c-7.63.87-14.79-4-16-10.88l-17.4-100.94c-1-9.43,7.11-17.4,17.64-17.4h0"/><path class="cls-2" d="M232.55,238.68c1.62-11.57,14.39-22.73,26.91-18.93,11.7,3.55,19.5,11.6,20.15,21.62h0l4.28,42.23-46.84,3-4.33-41.57A19.3,19.3,0,0,1,232.55,238.68Z"/><path class="cls-2" d="M205.92,199.32l-17.68.23L171,199.32l-45.24,18s6.8,91.88,14.06,150.63c1.16,9.38,37.68-2.9,37.68-2.9h69.6c4.13-41.4,10.72-89.95,14.54-144.5Z"/><path class="cls-8" d="M278.72,656.7,247.93,357.26H138.57l-.75,59L122.67,658.53l57.73,11,13.34-253.08h6.85c0,.77,20.83,249.14,20.83,249.14Z"/><path class="cls-1" d="M207.81,199l-14.29,29.74a5,5,0,0,1-8.91.14L169.13,199V176.9l27.9-1.13,10.51-.43,0,2.12.12,9.47Z"/><g id="Face_02"><path class="cls-9" d="M207.68,186.93c-3.82,2.47-38.55,7.2-38.55,7.2V176.9l27.9-1.13,10.53,1.69Z"/><g id="ears"><path class="cls-10" d="M224.34,138.76l-1.07-14.95,6-.43c3.15-.22,6,3.23,6.34,8.22.44,7.26-1.88,9.8-5,10l-6.11.44C224.46,141,224.42,139.87,224.34,138.76Z"/><path class="cls-9" d="M223.5,129.06l3.26-.23a3.68,3.68,0,0,1,3.65,3.64h0a3.67,3.67,0,0,1-3.1,4.12l-3.25.24Z"/><path class="cls-10" d="M156.29,143.65l-1.07-14.94-6,.43c-3.14.22-5.51,4.06-5.1,9,.61,7.26,3.27,9.44,6.41,9.21l6.12-.44C156.5,145.86,156.37,144.76,156.29,143.65Z"/><path class="cls-9" d="M155.74,133.94l-3.26.23a3.67,3.67,0,0,0-3.09,4.12h0a3.67,3.67,0,0,0,3.65,3.64l3.26-.23Z"/></g><path id="Face" class="cls-1" d="M179.15,83.21l13.92-1c15.48-1.12,29.17,12.36,30.44,29.94l3.24,45.17c.39,5.35-2.29,16.38-10,24.19a17.71,17.71,0,0,1-11.34,5.19l-17.07,1.17a17.71,17.71,0,0,1-11.86-3.52c-8.77-6.62-19.52-16.65-19.9-22l-3.25-45.17C152.05,99.62,163.68,84.32,179.15,83.21Z"/><path id="nose" class="cls-9" d="M199.91,154.77a31.17,31.17,0,0,0,7.41-1.41c.84-.28,1.76.16,1.38.66-1.4,1.83-4.65,3.7-8.56,4s-7.39-1.1-9-2.72c-.45-.44.4-1,1.27-.84A31.11,31.11,0,0,0,199.91,154.77Z"/><g id="Brows"><path class="cls-11" d="M222.27,126.4a1.08,1.08,0,0,0,.93-.67,1.09,1.09,0,0,0-.59-1.42,16.7,16.7,0,0,0-3-1c-2.3-.26-10.68.48-11,.51a1.09,1.09,0,0,0,.17,2.17h0a98.67,98.67,0,0,1,10.59-.51,17,17,0,0,1,2.39.82A1.06,1.06,0,0,0,222.27,126.4Z"/><path class="cls-11" d="M169.21,130.22a1,1,0,0,0,.47-.15,16.93,16.93,0,0,1,2.25-1.16,100.28,100.28,0,0,1,10.55-1,1.1,1.1,0,0,0,1-1.15,1.09,1.09,0,0,0-1.15-1c-.35,0-8.75.48-11,1.07a16,16,0,0,0-2.81,1.39,1.1,1.1,0,0,0-.38,1.49A1.09,1.09,0,0,0,169.21,130.22Z"/></g><path id="Hair" class="cls-11" d="M154.72,132.74s-20.91-32.93-2.12-51.92c4-4,12-6.81,12-6.81,1.45-1.27,4.22-1.41,4.71-3.09,1.33-4.48,5.69.56,8.11-.68,2-1,14.87-11.31,16.17-13.16.93-1.33.31,5.52,1.84,5.25,5.91-1,20.78-11.08,21.16-8.8.27,1.62-3.63,11.57-1.18,11.5,4.56-.12,16.77-3.58,17.37-3.12.75.57-2.21,11.34-3.36,12.49-3.82,3.84-7.28,4.48-6,6.11,9.19,11.41,1.06,45.6,1.06,45.6-4-22.09-4.49-29.68-11-33.78-3.23-2,.31,2.73-1.45,4.5-1.14,1.16,6.26,5,2.28,6.1-2.13.57-14.12-1.38-17.65-1.13-2.95.21,3.71,2.58,1.37,2.35-3.3-.33-15.32-3.43-17.7-4.25-7.6-2.62-11.42-6.59-16.87-4.63-8.37,3-8.57,13.52-8.89,20.62C154.31,124.37,154.72,132.74,154.72,132.74Z"/><path id="Mouth" class="cls-12" d="M200.07,166.46c6.35-.45,11.92-1.78,15.38-4,.31-.21.75,0,.7.32-.91,6.57-7.32,12-15.45,12.54s-15.23-3.83-17.08-10.2c-.09-.31.31-.58.65-.42C188,166.41,193.72,166.92,200.07,166.46Z"/></g><path class="cls-6" d="M177.26,673v8.89H126.32V673a19.74,19.74,0,0,1,19.74-19.75h11.45A19.75,19.75,0,0,1,177.26,673Z"/><rect class="cls-7" x="126.32" y="677.07" width="50.94" height="11.65"/><path class="cls-13" d="M137,387.05a2.13,2.13,0,0,0,2.18,2.12l109.4-1a2.84,2.84,0,0,0,2.84-3.22l-.79-12.86a1.79,1.79,0,0,0-1.8-1.65L139.26,371a2.13,2.13,0,0,0-2.15,2.08Z"/><line class="cls-14" x1="176.6" y1="379.76" x2="191.66" y2="379.76"/><rect class="cls-14" x="179.82" y="370.07" width="29.74" height="20.83" rx="5.22"/><line class="cls-15" x1="254.45" y1="286.65" x2="254.45" y2="263.95"/><path class="cls-1" d="M272.42,326.91l-3.61-.94-55.57-14.56-5.45,18.87s51.43,31.49,68.49,33.05,16.05-23.46,13.29-33.94C287,319.5,272.42,326.91,272.42,326.91Z"/><line class="cls-5" x1="256.37" y1="324.17" x2="274.66" y2="334.1"/><path class="cls-16" d="M245.31,318.66c-.26-2-.54-13.15-1.1-16.23-2.22-12.16-18.15-17.17-17.09-13.84.77,2.43,4.78,10.78,4.86,12.89-5.18-1.64-10.39-4-10.55-7-.33-6,1.46-8.61-3.09-7.59,0,0-11.37,3.11-11.27,11.77,0,2.59-.25,3.95,0,4.71-.8-.55-2.18-.61-4,2.64-3,5.33-5.05,10.39-2.89,12.73.69.75,1.11,1.18,1.37,1.41-1.06-.33-4.22-1-4.49,3.08-.32,4.86-1.13,8.4,3.22,10.33s21.12,6.95,21.12,6.95l21.44,15.44s14.86-24.73,15.31-36.16Z"/><path class="cls-4" d="M207,302.8s1.17,3.82,8.88,7.65"/><path class="cls-4" d="M200.16,319.47a41.28,41.28,0,0,0,7.7,3.64"/><rect class="cls-17" x="151.74" y="368.23" width="9.37" height="27.1"/><polygon class="cls-17" points="225.58 368.23 225.1 394.48 236.07 393.2 234.1 368.23 225.58 368.23"/><g id="Eyes"><g id="Eye_L"><circle class="cls-18" cx="215.06" cy="133.91" r="5.03" transform="translate(-9.05 15.77) rotate(-4.11)"/><path class="cls-19" d="M212.63,134.08a1.43,1.43,0,0,0,.45-2.75,3.32,3.32,0,0,1,1.75-.67,3.25,3.25,0,1,1-3,3.48v-.25A1.41,1.41,0,0,0,212.63,134.08Z"/></g><g id="Eye_R"><circle class="cls-18" cx="178.13" cy="136.56" r="5.03" transform="translate(-9.34 13.13) rotate(-4.11)"/><path class="cls-19" d="M175.7,136.74a1.43,1.43,0,0,0,.44-2.75,3.25,3.25,0,1,1-1.25,2.81,2.18,2.18,0,0,1,0-.25A1.43,1.43,0,0,0,175.7,136.74Z"/></g></g><path class="cls-14" d="M223.16,530.36s16.89,22,33.78,0"/><path class="cls-14" d="M142.82,530.36s16.89,22,33.78,0"/><polyline class="cls-15" points="156.1 211.13 167.85 241.87 177.51 227.76 180.82 230.3"/><polyline class="cls-15" points="200.23 228.43 207.49 239.82 220.71 211.13"/><line class="cls-15" x1="131.19" y1="283.12" x2="136.97" y2="261.22"/></g></svg>