<svg xmlns="http://www.w3.org/2000/svg" viewBox="0 0 1756.17 1339.78"><defs><style>.cls-1{isolation:isolate;}.cls-2{fill:#2b5168;}.cls-19,.cls-3,.cls-6{fill:none;stroke-width:3px;}.cls-3{stroke:#1e3744;}.cls-19,.cls-29,.cls-3,.cls-6{stroke-miterlimit:10;}.cls-4{fill:#ffb382;}.cls-5{fill:#d3e1f4;}.cls-6{stroke:#aa6243;}.cls-7{fill:#77463d;}.cls-8{fill:#42637d;}.cls-9{fill:#d26665;}.cls-10{fill:#f9fffc;}.cls-11{fill:#111;}.cls-12{fill:#f8f8f8;}.cls-13{fill:#d0550c;}.cls-14{fill:#445c87;}.cls-15{fill:#f88720;}.cls-16{fill:#b26016;}.cls-17{fill:#6579b8;}.cls-18{fill:#f6851e;}.cls-19{stroke:#af5127;}.cls-20{fill:#1e3744;}.cls-21,.cls-22{fill:#af5127;}.cls-22{opacity:0.46;mix-blend-mode:multiply;}.cls-23{fill:#d0daed;opacity:0.43;}.cls-24,.cls-29{fill:#fff;}.cls-24{opacity:0.18;}.cls-25{fill:#1c2c36;}.cls-26{fill:#cfd9ec;}.cls-27{fill:#ccb56e;}.cls-28{fill:#b19c61;}.cls-29{stroke:#97b555;stroke-width:10px;}.cls-30{fill:#97b555;}</style></defs><title>Пак_1_1</title><g class="cls-1"><g id="переработка"><path class="cls-2" d="M164.76,917.18l6.37-265,96-6.48,4.16,51.75-2.54,221.24-38.53-.2-8-217.54-6,.4c0,.68,0,220.33,0,220.33Z"/><path class="cls-3" d="M198.65,803.38S186,814,173.64,799.8"/><path class="cls-3" d="M261.74,796.06s-9,13.85-25,3.88"/><path class="cls-4" d="M97.59,588,84.17,598.91s25.73,50.92,37.27,60.63,26.41-12.15,22.23-20.13C139.68,631.77,97.59,588,97.59,588Z"/><path class="cls-4" d="M158.64,542.32s11.7,5.2,10.15,11.35-24.64,92.42-24.64,92.42c-1.89,5.45-9.69,9.91-19.36,5.69h0c-6.44-2-10.43-8.54-8.91-14.49L138.21,550c2.61-7.93,12-11.42,20.43-7.63h0"/><path class="cls-5" d="M180,553.64c2-10.08-5.39-23-16.9-23.51-10.76-.43-19.56,4-23,12.16h0l-15.76,33.87,38.06,16.06L178,558.91A16.46,16.46,0,0,0,180,553.64Z"/><path class="cls-4" d="M74.42,557.9a28.82,28.82,0,0,1,11.1,9.35c1.69,2.39,2.35,3.74,2.63,5.58.69,4.47-9.49,3-9.49,3s4.33,5,.13,5.71-11-4.24-11-4.24,10.44,5.53,9.48,7.16-8.6,3-10.14.6-7.8-6.52-8.1-9.28S62.13,571,62.13,571s3.37-6.69,5.61-6.81c0,0,4.87-6.43,6.68-6.32Z"/><path class="cls-4" d="M85.78,583s2.89-8.41,6.37-11.05c0,0-8.58-10.74-5.88-13.14s10.21,5.88,11.5,8.8,3.67,11.17,1.58,14.48S112.77,606,112.77,606l-25.55-1.8S79,592.64,76.88,591.74,85.78,583,85.78,583Z"/><path class="cls-6" d="M73.19,580.43s-1.83-.4-6.34-5"/><path class="cls-6" d="M79.45,576.13s-6-3.89-8.64-7.28"/><path class="cls-6" d="M121.88,613.82s7.83,8.73,9.3,16.92"/><path class="cls-7" d="M246.63,423.17s-2.33,39.92-4.08,44.21-3.07,4.41-3.07,4.41l-.36-32.92,2.56-16.71Z"/><path class="cls-4" d="M324.5,580.59l-19.61-4.4S271,607.75,265.65,621.85s19.52,25.83,25.66,19.25C297.2,634.8,324.5,580.59,324.5,580.59Z"/><path class="cls-4" d="M265.88,529.51s12.81,0,13.89,6.26,14.9,94.49,14.9,94.49c.48,5.74-4.85,13-15.4,13h0c-6.71.73-13-3.59-14-9.64l-15-88.9c-.81-8.31,6.32-15.29,15.59-15.25h0"/><path class="cls-5" d="M239.7,536.67c.81-10.25,10.78-17.81,22.26-16.9,10.19.81,18.13,8,19.22,16.8h0l6,36.88-41,5.13-6-36.29A16.72,16.72,0,0,1,239.7,536.67Z"/><path class="cls-5" d="M270.1,522.06s-.26,40.24-1.43,82.21c-.49,17.61-103.5,14.91-107.47-7.44-3.55-20-7.12-41.36-10.23-63.89l8.9-4.11,9.94-4.57L198.67,511l15.54-.85,15.09-1.22,24.31,7.84h0l.08,0,.11,0,.33.11.21.07.52.17,1,.31.73.23.78.25.81.26,1.61.52c.13,0,.27.08.39.13l.74.24.67.22.59.19.83.26h0Z"/><path class="cls-2" d="M268.67,604.27c-.49,17.61-1.14,35.51-2,50.89a.78.78,0,0,1,0,.22L172.29,659c-3.19-19-7.12-39.79-11.09-62.14a.72.72,0,0,1,.44-.12c4.49.46-.24-52-1.77-67.88l13.36-6.15c1.72,14.13,3.16,49.81,6.41,52.14,11.86,8.49,62.67-1.47,67-1.76,11.23-.76,7.08-55.58,7-56.32h0l.08,0,.11,0,.33.11.21.07.52.17,1,.31.73.23.78.25.81.26,1.61.52c.13,0,.27.08.39.13l.74.24.67.22.59.19.83.26h0c1.47.76,1.44,39.55,1.49,64.9S268.67,604.27,268.67,604.27Z"/><polygon class="cls-8" points="241.63 599.3 243.13 638.86 192.22 642.29 189.36 602.83 241.63 599.3"/><path class="cls-4" d="M197,511.52l14.31,25.28a4.38,4.38,0,0,0,7.83-.41L231,509.23l-1.31-19.37-24.56.65-9.25.25.1,1.86.46,8.32Z"/><g id="Face_02"><path class="cls-9" d="M196.34,499.42c3.5,1.94,34.27,4,34.27,4l-1-15.13L205,489l-9.15,2.11Z"/><g id="ears"><path class="cls-4" d="M178.85,458.1l.06-13.18-5.28,0c-2.78,0-5.11,3.2-5.08,7.59,0,6.41,2.23,8.5,5,8.51l5.4,0C178.88,460.05,178.85,459.08,178.85,458.1Z"/><path class="cls-9" d="M179,449.54h-2.88a3.24,3.24,0,0,0-3,3.41h0a3.25,3.25,0,0,0,3,3.44H179Z"/><path class="cls-4" d="M238.9,458.37l.06-13.19,5.28,0c2.78,0,5.08,3.24,5,7.63-.1,6.41-2.31,8.48-5.08,8.46l-5.4,0C238.85,460.32,238.9,459.35,238.9,458.37Z"/><path class="cls-9" d="M238.81,449.81h2.87a3.23,3.23,0,0,1,3,3.44h0a3.23,3.23,0,0,1-3,3.41h-2.87Z"/></g><path id="Face" class="cls-4" d="M215.25,406.65,203,406.59c-13.65-.06-24.88,12.59-25,28.1l-.18,39.85c0,4.72,3,14.25,10.24,20.65a15.53,15.53,0,0,0,10.27,3.89l15,0a15.63,15.63,0,0,0,10.21-3.8c7.31-6.33,16.15-15.78,16.17-20.48L240,435C240,419.45,228.9,406.71,215.25,406.65Z"/><path id="nose" class="cls-9" d="M201.26,470.72a27,27,0,0,1-6.59-.8c-.76-.2-1.54.24-1.18.66a11.67,11.67,0,0,0,15.53.06c.37-.41-.41-.85-1.17-.66A27.22,27.22,0,0,1,201.26,470.72Z"/><g id="Eyes"><g id="Eye_L"><circle class="cls-10" cx="187.04" cy="451.64" r="4.42" transform="translate(-265.43 636.67) rotate(-89.75)"/><path class="cls-11" d="M189.18,451.65a1.25,1.25,0,0,1-1.25-1.26,1.22,1.22,0,0,1,.7-1.12,2.81,2.81,0,0,0-1.58-.49,2.86,2.86,0,1,0,2.85,2.87c0-.07,0-.14,0-.21A1.34,1.34,0,0,1,189.18,451.65Z"/></g><g id="Eye_R"><circle class="cls-10" cx="219.63" cy="451.79" r="4.42" transform="matrix(0, -1, 1, 0, -233.13, 669.41)"/><path class="cls-11" d="M221.77,451.8a1.26,1.26,0,0,1-1.25-1.27,1.24,1.24,0,0,1,.7-1.12,2.86,2.86,0,1,0,1.27,2.39c0-.07,0-.15,0-.22A1.24,1.24,0,0,1,221.77,451.8Z"/></g></g><g id="Brows"><path class="cls-7" d="M179.94,447.13a1,1,0,0,1-.86-.53,1,1,0,0,1,.44-1.28,13.65,13.65,0,0,1,2.55-1,90.06,90.06,0,0,1,9.71-.21,1,1,0,0,1,0,1.91h0a87.59,87.59,0,0,0-9.33.18,14.05,14.05,0,0,0-2,.86A1,1,0,0,1,179.94,447.13Z"/><path class="cls-7" d="M226.76,447.34a1,1,0,0,1-.42-.1,14.41,14.41,0,0,0-2-.89,91.84,91.84,0,0,0-9.33-.26,1,1,0,1,1,0-1.91,93.92,93.92,0,0,1,9.71.29,14.18,14.18,0,0,1,2.54,1.06,1,1,0,0,1-.44,1.81Z"/></g><path id="Hair" class="cls-7" d="M239.63,448.69s18-29.88,1.57-46.69c-8.22-8.41-33.63-15-51.92-5.46-1.74.91-12.32,8.71-13.14,10.36-6.37,12.85,1.77,40.1,1.77,40.1,2.23-19.63,2.19-26.32,7.62-30.3,2.72-2,12.23,7.53,15.34,7.32,9.26-.63,12.18-1.78,14.22-2.64,6.52-2.75,9.64-6.46,14.54-5.06,7.53,2.15,8.33,11.36,9,17.58C239.5,441.32,239.63,448.69,239.63,448.69Z"/><path id="Mouth" class="cls-12" d="M201.81,481c-5.6,0-10.58-.85-13.75-2.61-.28-.16-.65,0-.59.33,1.19,5.71,7.13,10.06,14.3,10.09s13.16-4.27,14.4-10c.06-.28-.3-.49-.59-.33C212.39,480.23,207.41,481,201.81,481Z"/></g><path class="cls-13" d="M270.34,671.73a1.88,1.88,0,0,1-1.8,2l-96.12,5.62a2.51,2.51,0,0,1-2.69-2.66l-.07-11.35a1.56,1.56,0,0,1,1.49-1.54l96.22-6a1.89,1.89,0,0,1,2,1.7Z"/><path class="cls-14" d="M207.2,674.9l-.69-10.14a4.09,4.09,0,0,1,3.81-4.35l16.08-1.09a4.09,4.09,0,0,1,4.35,3.81l.68,10.13a4.08,4.08,0,0,1-3.8,4.35s-17,2-18.91,1.28S207.2,674.9,207.2,674.9Z"/><path class="cls-15" d="M201.33,675.12l1,14.4c0,.59-.69,1.12-1.65,1.19l-23,1.55c-.95.06-1.75-.36-1.79-1l-1-14.41c0-.58.7-1.11,1.65-1.18l23-1.55C200.49,674.1,201.29,674.53,201.33,675.12Z"/><polygon class="cls-13" points="191.41 660.45 193.38 683.48 183.67 683 183.93 660.96 191.41 660.45"/><path class="cls-7" d="M202.13,475.51s-1.91,5.88,2.87,6.82,21.34.77,24.17-6.8c0,0-10,1.24-13.2.08S204.1,468.93,202.13,475.51Z"/><path class="cls-7" d="M201.57,474.9s2.25,5.61-1.49,7.12-17.11,3.37-20.31-3.79c0,0,8.21,0,10.65-1.54S199.17,468.62,201.57,474.9Z"/><path class="cls-15" d="M254.82,429c-5.83-5.83-10.83-7.37-19.17-8.23-22.12-2.3-46.38-6.84-67.05,1.19a63.69,63.69,0,0,1,5.06-22.78c3.19-7.94,9.72-15.14,18.31-16.95a7.42,7.42,0,0,0,3-1c1.3-.95,1.6-2.69,2.41-4.06,1.88-3.23,7.1-4,9.83-1.38a10.54,10.54,0,0,0,2.52,2.3,6.73,6.73,0,0,0,3.49.21c9.94-1,19.94,3.41,27,10.29s7.27,15.86,9.75,25.25a20.6,20.6,0,0,0,1.81,5.13c1,1.68,2.51,3,3.4,4.76s1.32,4.18-.32,5.28Z"/><path class="cls-16" d="M207.74,380.09A60.64,60.64,0,0,0,196,404.21a58.53,58.53,0,0,0-1.24,7.55c-.08.84-1.39.57-1.31-.26a61.13,61.13,0,0,1,8.76-25.86,66,66,0,0,1,4.51-6.41c.54-.66,1.54.2,1,.86Z"/><path class="cls-16" d="M194,384.78a65.35,65.35,0,0,0-9.86,22.07,63.89,63.89,0,0,0-1.23,6.74c-.11.83-1.42.57-1.31-.26a66.18,66.18,0,0,1,7.69-23.47c1.13-2,2.37-4,3.7-5.94.48-.7,1.48.17,1,.86Z"/><path class="cls-16" d="M240,421.5c.14-9.88.16-21.24-7.37-28.83a12.94,12.94,0,0,0-6-3.8c-2.51-.54-4.65.78-6.43,2.41a24.8,24.8,0,0,0-6.52,10.61,72.55,72.55,0,0,0-2.8,14.23c-.11.84-1.42.58-1.31-.26,1.07-8.66,2.47-18.37,9-24.88,1.71-1.7,3.83-3.4,6.37-3.55s5,1.23,6.93,2.78a24.51,24.51,0,0,1,7.73,12c1.9,6.21,1.82,12.77,1.72,19.19,0,.84-1.35.94-1.33.09Z"/><path class="cls-16" d="M259.76,431c-6.85,1.4-6.65,5.18-13.66,5.22-1.61-3.71-2.45-5.74-4.17-7.08s-4-1.78-6.21-2.15c-21.32-3.6-38.89-3.83-60.38-1.35l.84,12.5c-8.55-1.71-19.9-3.9-27.26-8.36-2.22-1.34-4.51-3-5.16-5.4-1.27-4.61,4-8.39,8.71-10.07,12.78-4.56,26.86-4.57,40.47-3.37,21.64,1.92,52.48,5,67.75,15a2.79,2.79,0,0,1-.93,5.07Z"/><path class="cls-5" d="M223.73,919.69l.08,7.83,44.83-.42-.08-7.83A17.38,17.38,0,0,0,251,902.05l-10.07.1A17.38,17.38,0,0,0,223.73,919.69Z"/><rect class="cls-17" x="223.81" y="923.06" width="44.83" height="10.26" transform="translate(-8.67 2.34) rotate(-0.54)"/><path class="cls-5" d="M168.22,919.88l.11,7.83,44.82-.63-.11-7.83a17.37,17.37,0,0,0-17.62-17.13l-10.07.14A17.37,17.37,0,0,0,168.22,919.88Z"/><rect class="cls-17" x="168.34" y="923.15" width="44.83" height="10.26" transform="translate(-13.04 2.78) rotate(-0.81)"/><path class="cls-18" d="M68.55,533.57C66.06,541,71,549.84,72.33,552c-4,1.84-13.46,4.87-16.14,10.49-3.56,7.45,5.14,14.94,5.14,14.94s-1.12,7.62,3,10.74c0,0,4.94,9.64,9.66,9.29l2.16,4.4,6,22.13,33.24-21.36-13.12-13.87s9-6.16-1.73-24.75-14.22-28.24-14.72-33.58S71.5,524.72,68.55,533.57Z"/><path class="cls-19" d="M74.59,569s9.66-9.81,18.34-3.24c6.51,4.92,1.11,10.87,1.11,10.87"/><path class="cls-19" d="M78.79,581.52s11.12-8.81,16.42-4.24,2.92,9,.51,10.38-7.22.4-7.22.4"/><path class="cls-19" d="M72.47,552.78s11.65-6.78,15.79.29c2.13,3.64,1.64,6.5.17,10"/><polygon class="cls-20" points="1121.27 442.86 1121.27 850.27 299.88 843.32 299.88 887.09 1121.27 894.04 1121.27 895.06 1294.72 895.06 1294.72 442.86 1121.27 442.86"/><path class="cls-15" d="M1690.09,872.36c.44,11.76-7.09,21.61-16.57,21.63l-408.26,1.07V383.59c0-6.89,4.5-12.47,10-12.47h257.86c10.1,0,18.89,7.28,21.29,17.64,0,0,1.38,2.93,3.83,8.21.14.31.3.65.46,1,.5,1.08,1,2.24,1.63,3.5l2.09,4.48c18.58,39.81,65.16,140,94.2,205l.31.71c3.34,7.48,6.45,14.5,9.24,20.88q1,2.31,2,4.48l1.95,4.48c6.9,16,11.14,26.58,11.24,28.63.89,18.55,2.28,48.15,3.5,74.06.49,10.89,1,21.11,1.35,29.61.44,9.69.76,17.11.9,20.65l1.41,36.94.9,23.81.15,3.87Z"/><path class="cls-19" d="M1570.05,634.09,1465.87,512.75h-159V872.44s184.48-25.38,222.5,66.67h39.74Z"/><path class="cls-21" d="M1400.1,701.33a9.88,9.88,0,0,1-9.88,9.89h-39.53a9.87,9.87,0,0,1-9.17-6.19v0a9.87,9.87,0,0,1,9.18-13.53h39.53A9.88,9.88,0,0,1,1400.1,701.33Z"/><path class="cls-22" d="M1399.4,705a9.75,9.75,0,0,1-2.19,3.33,9.86,9.86,0,0,1-7,2.9h-39.53a9.87,9.87,0,0,1-9.17-6.19v0Z"/><path class="cls-8" d="M1317.37,641c-8,0-14.53-6.87-14.53-15.31V418.2c0-8.44,6.52-15.31,14.53-15.31h150.05a14.61,14.61,0,0,1,14.08,11.52l92.11,207.49.08.41a15.77,15.77,0,0,1-3.13,13.29A14.25,14.25,0,0,1,1559.5,641Z"/><path class="cls-20" d="M1467.42,406.89a10.71,10.71,0,0,1,10.26,8.79l1.84,4.13,90.26,203.33c1.5,7.08-3.52,13.83-10.28,13.83H1317.37c-5.81,0-10.53-5.07-10.53-11.31V418.2c0-6.25,4.72-11.31,10.53-11.31h150.05m0-8H1317.37c-10.22,0-18.53,8.66-18.53,19.31V625.66c0,10.65,8.31,19.31,18.53,19.31H1559.5a18.19,18.19,0,0,0,14.17-6.85,19.81,19.81,0,0,0,3.94-16.64l-.18-.82-.34-.76-90.26-203.33-1.54-3.47a18.54,18.54,0,0,0-17.87-14.21Z"/><path class="cls-23" d="M1517.89,605.06h-157.4a7.12,7.12,0,0,1-6.84-7.35V462.85a7.11,7.11,0,0,1,6.84-7.35H1458a7,7,0,0,1,6.67,5.71l1.2,2.69,58.67,132.17C1525.54,600.67,1522.28,605.06,1517.89,605.06Z"/><path class="cls-24" d="M1479.52,419.81,1367.1,637h-49.73c-5.81,0-10.53-5.07-10.53-11.31V558.48l102.79-151.59h57.79a10.71,10.71,0,0,1,10.26,8.79Z"/><path class="cls-8" d="M1560.37,401.45h-19a11.63,11.63,0,0,0-10.48,16.65l101.7,212.28a11.64,11.64,0,0,0,10.49,6.59h25.08l-2-4.48L1657,611.61l-.31-.71c-29-65-75.63-165.16-94.2-205Z"/><path class="cls-20" d="M1670.12,641.45h-27a16.19,16.19,0,0,1-14.52-9.14L1526.86,420A16.1,16.1,0,0,1,1541.38,397h16.9c.14.31.3.65.46,1,.5,1.08,1,2.24,1.63,3.5l2.09,4.48h-21.08a7.14,7.14,0,0,0-6.44,10.23l101.71,212.28a7.17,7.17,0,0,0,6.44,4h23.12q1,2.31,2,4.48Z"/><path class="cls-25" d="M1530.26,537.62h8.84a0,0,0,0,1,0,0V641.74a0,0,0,0,1,0,0h-8.84a26.81,26.81,0,0,1-26.81-26.81V564.43A26.81,26.81,0,0,1,1530.26,537.62Z"/><path class="cls-26" d="M1688.52,831.34l-21.4-3.37a11.1,11.1,0,0,1-9.88-10.42L1654,758.49a11.1,11.1,0,0,1,9.92-11.67l21-2.68c.49,10.89,1,21.11,1.35,29.61.44,9.69.76,17.11.9,20.65Z"/><rect class="cls-27" x="291.91" y="277.68" width="889.06" height="582.53"/><rect class="cls-28" x="291.91" y="809.08" width="888.03" height="50.79"/><rect class="cls-28" x="291.91" y="277.68" width="889.06" height="54.16"/><rect class="cls-28" x="976.16" y="322.22" width="22.59" height="515.01"/><rect class="cls-28" x="487.99" y="308.44" width="22.59" height="515.01"/><path class="cls-8" d="M1700.84,878.25a7.62,7.62,0,0,0-7.62-7.62h-92.5v22.68L300.05,881,264,932.2H162.6v29.68H1685.3v-.16h15.54Z"/><path class="cls-8" d="M879.34,955.18c0,1.92,0,3.81-.12,5.71H609c-.09-1.9-.12-3.79-.12-5.71a135.21,135.21,0,0,1,270.42,0Z"/><path class="cls-20" d="M864.75,960.89l0-.46a118.6,118.6,0,0,0-237,0l0,.46Z"/><circle class="cls-8" cx="746.23" cy="965.22" r="95.74"/><path class="cls-20" d="M797.74,965.22a51.5,51.5,0,1,1-4.39-20.81A51.51,51.51,0,0,1,797.74,965.22Z"/><path class="cls-5" d="M797.74,965.22a40,40,0,1,1-4.39-20.81A51.51,51.51,0,0,1,797.74,965.22Z"/><circle class="cls-3" cx="746.23" cy="965.22" r="10.44"/><path class="cls-3" d="M671.67,981.77s6.56,37.58,46.52,50.7"/><path class="cls-8" d="M588.23,955.18c0,1.92,0,3.81-.13,5.71H317.93c-.09-1.9-.13-3.79-.13-5.71a135.22,135.22,0,0,1,270.43,0Z"/><path class="cls-20" d="M573.64,960.89l0-.46a118.6,118.6,0,0,0-237,0l0,.46Z"/><circle class="cls-8" cx="455.11" cy="965.22" r="95.74"/><path class="cls-20" d="M506.62,965.22a51.5,51.5,0,1,1-4.39-20.81A51.51,51.51,0,0,1,506.62,965.22Z"/><path class="cls-5" d="M506.62,965.22a51.5,51.5,0,0,1-93.11,30.36,51.51,51.51,0,0,1,88.72-51.17A51.08,51.08,0,0,1,506.62,965.22Z"/><circle class="cls-3" cx="455.12" cy="965.22" r="10.44"/><path class="cls-3" d="M380.55,981.77s6.57,37.58,46.53,50.7"/><path class="cls-8" d="M1535.69,956.32c0,1.92,0,3.81-.13,5.71H1265.39c-.09-1.9-.13-3.79-.13-5.71a135.22,135.22,0,0,1,270.43,0Z"/><path class="cls-20" d="M1521.1,962l0-.46a118.6,118.6,0,0,0-237,0l0,.46Z"/><circle class="cls-8" cx="1402.57" cy="966.36" r="95.74"/><path class="cls-20" d="M1454.08,966.36a51.5,51.5,0,1,1-4.39-20.81A51.51,51.51,0,0,1,1454.08,966.36Z"/><path class="cls-5" d="M1454.08,966.36a40,40,0,1,1-4.39-20.81A51.51,51.51,0,0,1,1454.08,966.36Z"/><circle class="cls-3" cx="1402.58" cy="966.37" r="10.44"/><path class="cls-3" d="M1328,982.91s6.57,37.58,46.53,50.7"/><rect class="cls-15" x="1642.96" y="924.66" width="27.18" height="7.53"/><rect class="cls-15" x="918.72" y="924.66" width="27.18" height="7.53"/><path class="cls-29" d="M693.65,412.5,551,659.81c-21.79,37.79,5.48,85,49.1,85H902c44.86,0,71.94-49.65,47.65-87.37L790.41,410.12C767.43,374.45,714.85,375.74,693.65,412.5Z"/><path class="cls-30" d="M715.58,662.71H659.66L683.78,621,702,631.59a1.17,1.17,0,0,0,.63.17,1.26,1.26,0,0,0,1.25-1.46L694.39,571a1.26,1.26,0,0,0-.61-.9,1.28,1.28,0,0,0-1.08-.09l-56.19,21.14a1.26,1.26,0,0,0-.82,1.08,1.28,1.28,0,0,0,.63,1.2l16.92,9.82-36.41,63.06a16.88,16.88,0,0,0,6.17,23l10.58,6.16a19.85,19.85,0,0,0,10,2.71h72a1.27,1.27,0,0,0,1.27-1.27V664A1.27,1.27,0,0,0,715.58,662.71Zm-59.52-59.27h0Z"/><path class="cls-30" d="M881.94,655.68l-35.81-62.46a1.25,1.25,0,0,0-.76-.59,1.31,1.31,0,0,0-1,.12l-28.61,16.41a1.26,1.26,0,0,0-.47,1.73l27.81,48.5L795,659.21l.12-21.06a1.27,1.27,0,0,0-.72-1.15,1.26,1.26,0,0,0-1.34.16l-46.71,37.71a1.27,1.27,0,0,0,0,2l46.29,38.23a1.25,1.25,0,0,0,.8.29,1.41,1.41,0,0,0,.54-.11,1.28,1.28,0,0,0,.73-1.14l.11-19.57,72.8.22h.06A16.88,16.88,0,0,0,884.49,678l.08-12.25A19.8,19.8,0,0,0,881.94,655.68Z"/><path class="cls-30" d="M773.57,543.76l-17.86,11.15a1.27,1.27,0,0,0-.58,1.22,1.25,1.25,0,0,0,.85,1.06l56.84,19.31a1.41,1.41,0,0,0,.41.07,1.25,1.25,0,0,0,.67-.2,1.23,1.23,0,0,0,.58-.91l7.57-59.56a1.27,1.27,0,0,0-1.93-1.23L803.53,525,764.8,463.39a16.88,16.88,0,0,0-23.25-5.31l-10.39,6.47a19.93,19.93,0,0,0-7.06,7.58l-33.65,63.66a1.27,1.27,0,0,0,.53,1.71l29.16,15.41a1.26,1.26,0,0,0,.59.15,1.28,1.28,0,0,0,1.13-.68L748,503Z"/></g></g></svg>