<svg xmlns="http://www.w3.org/2000/svg" viewBox="0 0 1920 1334.3"><defs><style>.cls-1{isolation:isolate;}.cls-2{fill:#d3e1f4;}.cls-3{fill:#6579b8;}.cls-4{fill:#2b5168;}.cls-5,.cls-7{fill:none;stroke-miterlimit:10;stroke-width:3px;}.cls-5{stroke:#1e3744;}.cls-6{fill:#ffb382;}.cls-7{stroke:#aa6243;}.cls-8{fill:#77463d;}.cls-9{fill:#42637d;}.cls-10{fill:#d26665;}.cls-11{fill:#f9fffc;}.cls-12{fill:#20353f;}.cls-13{fill:#743b2e;}.cls-14{fill:#f8f8f8;}.cls-15{fill:#c1272d;}.cls-16{fill:#f88720;}.cls-17{fill:#111;}.cls-18{fill:#3b314a;}.cls-19,.cls-23,.cls-26{fill:#97b555;}.cls-20{fill:#926341;}.cls-21{fill:#abd160;}.cls-22,.cls-25{fill:#fbb03b;}.cls-22{opacity:0.54;}.cls-23,.cls-26{mix-blend-mode:multiply;}.cls-24{fill:#fff;}.cls-25{opacity:0.32;}.cls-26{opacity:0.63;}</style></defs><title>Пак_1_1</title><g class="cls-1"><g id="диван"><path class="cls-2" d="M510.72,1137.4v29.67h133v-.81a18.74,18.74,0,0,0-.48-3.67,34.65,34.65,0,0,0-30.2-27l-42.46-4.68c-2.23-.87-5.08-.83-6.77.64-8,7-16.74,18.33-41.1,6C521,1136.69,511.12,1135.71,510.72,1137.4Z"/><rect class="cls-3" x="510.72" y="1167.07" width="133.05" height="20.57"/><path class="cls-4" d="M600.38,1134.21,549,634.42H366.46l-1.25,98.44-25.28,404.4,96.35,18.36,22.26-422.41H470c0,1.3,34.77,415.83,34.77,415.83Z"/><path class="cls-5" d="M516.22,924.08s25.25,18.49,46.86-10"/><path class="cls-5" d="M376.35,917.16s18.76,25.05,47.73,4.15"/><path class="cls-6" d="M679.94,503.74l26.79,18.88S664.54,622.24,644,642.08s-51.51-19.62-44.64-35.24C605.9,591.87,679.94,503.74,679.94,503.74Z"/><path class="cls-6" d="M558.61,425s-21.48,11.35-17.76,22.78,58.41,171.72,58.41,171.72c4.27,10.06,19.61,17.52,37.36,8.28h0c11.92-4.69,18.65-17.48,15-28.54l-53.4-162.41c-6-14.66-24.1-20.07-39.63-11.83h0"/><path class="cls-2" d="M519.65,449.19c-5.06-18.82,7.26-44.31,29-46.64,20.3-2.18,37.53,5.1,45.07,20.08l0,0,34.15,62.08-70,35.25-33.78-61A32,32,0,0,1,519.65,449.19Z"/><path class="cls-7" d="M637.29,555.64s-13.7,17.52-15.45,33.19"/><path class="cls-8" d="M376.92,210.84s9.51,75.24,13.36,83.12,6.38,8,6.38,8l-3.52-62.32-7-31.29Z"/><path class="cls-2" d="M345.14,400.93S350.77,477,358.33,556.3c3.18,33.25,197.73,15,202.38-27.79,4.16-38.36,8.2-79.16,11.22-122.19l-17.37-6.63-19.39-7.39-56.3-21.49-29.51.38-28.71-.38-45,17.94h0l-.14.06-.22.07-.61.25-.39.16-1,.38-1.78.71-1.35.53-1.44.58-1.5.6-3,1.18c-.25.11-.49.19-.73.29l-1.36.55-1.24.5-1.09.43-1.54.61h0Z"/><path class="cls-4" d="M358.33,556.3c3.18,33.25,6.7,67.05,10.28,96a1.77,1.77,0,0,0,.08.4l179-5.24c3.62-36.44,8.4-76.21,13.05-119a1.21,1.21,0,0,0-.84-.17c-8.43,1.43-6.18-98.45-5.31-128.65l-26.07-9.94c-1.44,27,.39,94.65-5.47,99.47-21.36,17.57-118.75,5.21-127,5.21-21.35,0-15.12-106.4-15-107.82l-5.37,2.14-.14.07-.22.07-17,6.77L365,393c-2.68,1.63-4.36,77.69-1.22,125.66C367,566.82,358.33,556.3,358.33,556.3Z"/><polygon class="cls-9" points="408.85 543.44 411.07 618.48 507.83 618.48 508.21 543.44 408.85 543.44"/><path class="cls-6" d="M482,371.68l-23.85,49.64a8.31,8.31,0,0,1-14.88.22l-25.82-49.86V334.85L464,333l17.54-.71,0,3.53.19,15.8Z"/><polygon class="cls-10" points="417.01 367.23 481.49 354.55 481.49 339.45 417.32 340.5 417.01 367.23"/><g id="ears"><path class="cls-6" d="M389.21,280.44l-1.14-25-10,.45c-5.26.24-9.38,6.54-8.9,14.86.69,12.13,5,15.88,10.29,15.64l10.23-.47C389.46,284.13,389.3,282.29,389.21,280.44Z"/><path class="cls-10" d="M388.72,264.21l-5.45.24c-3.1.15-5.5,3.18-5.34,6.75h0c.17,3.57,2.84,6.37,5.93,6.23l5.45-.25Z"/><path class="cls-6" d="M503,275.25l-1.14-25,10-.46c5.26-.24,9.94,5.66,10.22,14,.42,12.15-3.57,16.28-8.83,16.52l-10.22.46C503.06,279,503.06,277.1,503,275.25Z"/><path class="cls-10" d="M502,259l5.45-.25c3.1-.14,5.77,2.66,5.93,6.23h0c.16,3.57-2.24,6.6-5.34,6.75l-5.44.24Z"/></g><path id="Face" class="cls-6" d="M453.27,179.53,430,180.59c-25.86,1.18-45.93,26.2-44.59,55.59l3.45,75.5c.4,8.94,12.38,26.07,26.72,37.5a29.49,29.49,0,0,0,19.82,6.38l28.52-1.39a29.57,29.57,0,0,0,19-8.16c13.25-12.67,23.72-30.78,23.31-39.69l-3.45-75.49C501.39,201.43,479.13,178.35,453.27,179.53Z"/><path id="nose" class="cls-10" d="M458.52,296.52a27.72,27.72,0,0,1-9.09-1c-1.05-.32-2.08.56-1.54,1.32a12.89,12.89,0,0,0,21.25-1c.46-.81-.64-1.59-1.66-1.18A27.42,27.42,0,0,1,458.52,296.52Z"/><g id="Eyes"><g id="Eye_L"><path class="cls-11" d="M421.92,274.25c-4.59.58-8.55-3.37-8.76-8a8.39,8.39,0,1,1,16.76-.76S430.61,273.15,421.92,274.25Z"/><path class="cls-12" d="M425.6,265.68a2.38,2.38,0,0,1-1.27-4.46,5.42,5.42,0,1,0,2.63,4.4c0-.14,0-.27,0-.41A2.32,2.32,0,0,1,425.6,265.68Z"/></g><g id="Eye_R"><circle class="cls-11" cx="483.28" cy="263.05" r="8.39" transform="translate(-11.49 22.3) rotate(-2.61)"/><path class="cls-12" d="M487.34,262.87a2.39,2.39,0,0,1-1.27-4.47,5.42,5.42,0,1,0,2.63,4.41c0-.14,0-.28,0-.42A2.41,2.41,0,0,1,487.34,262.87Z"/></g></g><g id="Brows"><path class="cls-13" d="M407.67,258a1.82,1.82,0,0,1-1-3.4,27,27,0,0,1,4.74-2.19c3.76-.88,17.78-1.3,18.38-1.32a1.82,1.82,0,0,1,.13,3.63h0c-3.95.12-14.82.56-17.65,1.22a27,27,0,0,0-3.8,1.83A1.76,1.76,0,0,1,407.67,258Z"/><path class="cls-13" d="M496.38,254a1.79,1.79,0,0,1-.82-.15,27.15,27.15,0,0,0-3.95-1.48c-2.87-.4-13.74.15-17.69.39a1.81,1.81,0,0,1-.23-3.62c.6,0,14.6-.9,18.42-.36a26.93,26.93,0,0,1,4.92,1.75,1.81,1.81,0,0,1-.65,3.47Z"/></g><path id="Hair" class="cls-13" d="M503.44,256.85s28.22-58.67-6.63-86.46c-7.43-5.93-21.28-8.95-21.28-8.95-2.67-1.82-17.75-2.16-22-3.74-3.49-1.29-19.83.6-22.42.46-10-.53-26.73,6-30.81,6.35-7.58.68-14,9.61-16.54,10.63-3.4,1.39-3.42,7.55-5.28,10.51-13,20.71,7.91,73.86,7.91,73.86,2.35-37.39,4.38-48,7.63-45.37,2.12,1.69-3.21,13.88,3.59,14.88,3.64.53,24.17-15,30.08-15.23,4.92-.22-2.65,14,1.18,13.15,5.4-1.19,21.72-17.67,25.51-19.5,12.08-5.81,17.64-13.15,27.05-11,14.47,3.37,16.86,20.73,18.77,32.45C502.48,242.91,503.44,256.85,503.44,256.85Z"/><path class="cls-14" d="M429.22,305.64a38.16,38.16,0,0,0,1.7,6,34.93,34.93,0,0,0,1.58,3.65c.4.8.83,1.59,1.29,2.35a30.94,30.94,0,0,0,9.21,9.91l.52.36.8.48.4.24.41.22c.28.16.55.3.83.44.44.21.87.42,1.32.6a1.69,1.69,0,0,0,.28.12c.19.08.37.16.56.22.39.16.79.3,1.19.43l.9.28.9.23a6.92,6.92,0,0,0,.88.19c.62.13,1.27.24,1.92.32.5.06,1,.1,1.53.12h.86c.45,0,.9,0,1.36,0l1-.07.5,0,.13,0,.76-.1c.28,0,.54-.08.81-.14s.49-.09.74-.14l0,0h.05c.37-.08.73-.17,1.09-.27s.74-.21,1.11-.34h0l1.16-.43c.39-.15.78-.31,1.17-.49l.51-.24.5-.24s.08,0,.11-.07a27.42,27.42,0,0,0,2.51-1.47c.4-.27.8-.56,1.2-.85l0,0c.37-.28.74-.58,1.1-.89h0l.34-.29h0l1.05-1a1.49,1.49,0,0,1,.18-.17v0a29.32,29.32,0,0,0,3.81-4.58,31.44,31.44,0,0,0,2.45-4.24q.19-.37.36-.75a33.48,33.48,0,0,0,1.43-3.66l0-.13a38.31,38.31,0,0,0,1.7-8c.07-.78-.64-1.32-1.17-.85a14.43,14.43,0,0,1-2.64,1.83c-5.82,3.23-14.1,3.3-23.23,3.71-10.61.49-20,1.34-26.26-3.17C429.74,304.27,429.07,304.87,429.22,305.64Z"/><path class="cls-12" d="M430.3,304.68a87.2,87.2,0,0,0,5.3,9.76,31.53,31.53,0,0,0,3.57,1.47c11.76,4,25.44,1.45,35.81-2h0l1.66-.57,3.14-9.18a14.43,14.43,0,0,0,2.64-1.83c.53-.47,1.24.07,1.17.85a38.31,38.31,0,0,1-1.7,8l0,.13a33.48,33.48,0,0,1-1.43,3.66q-.17.38-.36.75a31.44,31.44,0,0,1-2.45,4.24,29.32,29.32,0,0,1-3.81,4.58v0a1.49,1.49,0,0,0-.18.17l-1.05,1h0l-.36.33v0c-.36.31-.73.61-1.1.89l0,0c-.4.29-.8.58-1.2.85a27.42,27.42,0,0,1-2.51,1.47s-.08,0-.11.07l-.5.24-.51.24c-.39.18-.78.34-1.17.49l-1.16.43h0c-.37.13-.74.24-1.11.34s-.72.19-1.09.27h-.05l0,0c-.25.05-.49.11-.74.14s-.53.1-.81.14l-.76.1-.13,0-.5,0-1,.07c-.46,0-.91,0-1.36,0h-.86q-.78,0-1.53-.12c-.65-.08-1.3-.19-1.92-.32a6.92,6.92,0,0,1-.88-.19l-.9-.23-.9-.28c-.4-.13-.8-.27-1.19-.43-.19-.06-.37-.14-.56-.22a1.69,1.69,0,0,1-.28-.12c-.45-.18-.88-.39-1.32-.6-.28-.14-.55-.28-.83-.44l-.41-.22-.4-.24-.8-.48-.52-.36a30.94,30.94,0,0,1-9.21-9.91c-.46-.76-.89-1.55-1.29-2.35a34.93,34.93,0,0,1-1.58-3.65,38.16,38.16,0,0,1-1.7-6C429.07,304.87,429.74,304.27,430.3,304.68Z"/><path class="cls-15" d="M443,327.59l.52.36.8.48.4.24.41.22c.28.16.55.3.83.44.44.21.87.42,1.32.6a1.69,1.69,0,0,0,.28.12c.19.08.37.16.56.22.39.16.79.3,1.19.43l.9.28.9.23a6.92,6.92,0,0,0,.88.19c.62.13,1.27.24,1.92.32q.75.09,1.53.12h.86c.45,0,.9,0,1.36,0l1-.07.5,0,.13,0,.76-.1c.28,0,.54-.08.81-.14s.49-.09.74-.14l0,0h.05c.37-.08.73-.17,1.09-.27s.74-.21,1.11-.34h0l1.16-.43c.39-.15.78-.31,1.17-.49l.51-.24.5-.24s.08,0,.11-.07a27.42,27.42,0,0,0,2.51-1.47c.4-.27.8-.56,1.2-.85l0,0c.37-.28.74-.58,1.1-.89v0l0,0c-3.64-1.27-10.93-3.15-18.55-1.23C449.85,325.72,446.16,326.71,443,327.59Z"/><path class="cls-16" d="M363.79,668.53a3.56,3.56,0,0,0,3.64,3.55L550,670.44a4.76,4.76,0,0,0,4.75-5.38l-1.32-21.47a3,3,0,0,0-3-2.74l-182.83.86a3.57,3.57,0,0,0-3.59,3.48Z"/><path class="cls-2" d="M431,1161.4v14.85H346V1161.4a33,33,0,0,1,33-33h19.1A33,33,0,0,1,431,1161.4Z"/><rect class="cls-3" x="346.01" y="1168.2" width="85.02" height="19.45"/><path class="cls-2" d="M1411.1,1137.4v29.67h-133v-.81a18.74,18.74,0,0,1,.48-3.67,34.64,34.64,0,0,1,30.2-27l42.46-4.68c2.22-.87,5.07-.83,6.77.64,8,7,16.74,18.33,41.1,6C1400.84,1136.69,1410.71,1135.71,1411.1,1137.4Z"/><rect class="cls-3" x="1278.06" y="1167.07" width="133.05" height="20.57" transform="translate(2689.16 2354.71) rotate(-180)"/><path class="cls-4" d="M1321.44,1134.21l51.4-499.79h182.52l1.25,98.44,25.28,404.4-96.35,18.36-22.25-422.41h-11.43c0,1.3-34.77,415.83-34.77,415.83Z"/><path class="cls-5" d="M1405.61,924.08s-25.25,18.49-46.86-10"/><path class="cls-5" d="M1545.47,917.16s-18.76,25.05-47.72,4.15"/><path class="cls-6" d="M1241.89,503.74l-26.8,18.88s42.2,99.62,62.78,119.46,51.52-19.62,44.64-35.24C1315.92,591.87,1241.89,503.74,1241.89,503.74Z"/><path class="cls-6" d="M1363.22,425s21.48,11.35,17.76,22.78-58.41,171.72-58.41,171.72c-4.27,10.06-19.61,17.52-37.37,8.28h0c-11.92-4.69-18.64-17.48-15-28.54l53.39-162.41c6-14.66,24.11-20.07,39.64-11.83h0"/><path class="cls-2" d="M1402.17,449.19c5.06-18.82-7.26-44.31-29-46.64-20.3-2.18-37.53,5.1-45.07,20.08l0,0L1294,484.69l70,35.25,33.77-61A31.8,31.8,0,0,0,1402.17,449.19Z"/><path class="cls-7" d="M1284.54,555.64s13.7,17.52,15.44,33.19"/><path class="cls-8" d="M1544.9,210.84s-9.5,75.24-13.35,83.12-6.38,8-6.38,8l3.52-62.32,7-31.29Z"/><path class="cls-2" d="M1576.69,400.93s-5.64,76.11-13.2,155.37c-3.17,33.25-197.73,15-202.38-27.79-4.15-38.36-8.2-79.16-11.21-122.19l17.37-6.63,19.38-7.39,56.3-21.49,29.52.38,28.71-.38,45,17.94h0l.15.06.22.07.61.25.39.16,1,.38,1.78.71,1.35.53,1.45.58,1.49.6,3,1.18c.24.11.49.19.72.29l1.36.55,1.25.5,1.09.43,1.53.61h0Z"/><path class="cls-4" d="M1563.49,556.3c-3.17,33.25-6.69,67.05-10.27,96a1.37,1.37,0,0,1-.09.4l-179-5.24c-3.63-36.44-8.41-76.21-13.06-119a1.22,1.22,0,0,1,.84-.17c8.44,1.43,6.19-98.45,5.32-128.65l26.07-9.94c1.43,27-.39,94.65,5.47,99.47,21.35,17.57,118.75,5.21,127,5.21,21.35,0,15.13-106.4,15-107.82l5.36,2.14a.55.55,0,0,1,.15.07l.22.07,17,6.77-6.67-2.66c2.68,1.63,4.37,77.69,1.22,125.66C1554.87,566.82,1563.49,556.3,1563.49,556.3Z"/><polygon class="cls-9" points="1512.97 543.44 1510.75 618.48 1414 618.48 1413.62 543.44 1512.97 543.44"/><path class="cls-6" d="M1439.79,371.68l23.86,49.64a8.31,8.31,0,0,0,14.88.22l25.82-49.86V334.85L1457.8,333l-17.55-.71,0,3.53-.2,15.8Z"/><g id="Face_02"><path class="cls-10" d="M1440,348.68c6.38,4.12,64.33,12,64.33,12V332l-46.55-1.89-17.58,2.83Z"/><g id="ears-2" data-name="ears"><path class="cls-6" d="M1412.2,268.28l1.8-24.94-10-.72c-5.25-.37-10.08,5.4-10.58,13.71-.73,12.13,3.14,16.36,8.39,16.74l10.21.74C1412,272,1412.07,270.14,1412.2,268.28Z"/><path class="cls-10" d="M1413.61,252.1l-5.43-.39c-3.1-.22-5.84,2.51-6.09,6.08h0c-.26,3.56,2.06,6.66,5.16,6.88l5.43.39Z"/><path class="cls-6" d="M1525.79,276.45l1.79-24.94,10,.72c5.25.37,9.2,6.78,8.51,15.08-1,12.11-5.45,15.74-10.7,15.36l-10.21-.73C1525.44,280.13,1525.66,278.3,1525.79,276.45Z"/><path class="cls-10" d="M1526.71,260.24l5.43.39c3.1.22,5.42,3.32,5.16,6.88h0c-.25,3.56-3,6.3-6.09,6.07l-5.44-.39Z"/></g><path id="Face-2" data-name="Face" class="cls-6" d="M1487.64,175.57l-23.24-1.67c-25.83-1.86-48.69,20.63-50.8,50l-5.42,75.38c-.64,8.93,3.82,27.34,16.73,40.38a29.51,29.51,0,0,0,18.93,8.66l28.49,1.95a29.5,29.5,0,0,0,19.79-5.88c14.64-11,32.58-27.78,33.22-36.68l5.42-75.38C1532.87,203,1513.46,177.43,1487.64,175.57Z"/><path id="nose-2" data-name="nose" class="cls-10" d="M1453,295a51.59,51.59,0,0,1-12.37-2.35c-1.41-.47-2.94.26-2.3,1.09,2.33,3.06,7.75,6.19,14.28,6.66s12.34-1.85,15.08-4.55c.75-.73-.65-1.67-2.12-1.41A51.52,51.52,0,0,1,1453,295Z"/><g id="Eyes-2" data-name="Eyes"><g id="Eye_L-2" data-name="Eye_L"><circle class="cls-11" cx="1428.51" cy="257.11" r="8.39" transform="translate(1069.62 1663.5) rotate(-85.89)"/><path class="cls-17" d="M1432.57,257.4a2.39,2.39,0,0,1-.74-4.59,5.34,5.34,0,0,0-2.93-1.11,5.42,5.42,0,1,0,5,5.79c0-.13,0-.27,0-.41A2.43,2.43,0,0,1,1432.57,257.4Z"/></g><g id="Eye_R-2" data-name="Eye_R"><circle class="cls-11" cx="1490.16" cy="261.54" r="8.39" transform="translate(1122.42 1729.1) rotate(-85.89)"/><path class="cls-17" d="M1494.21,261.83a2.39,2.39,0,0,1-.74-4.59,5.43,5.43,0,1,0,2.1,4.69c0-.14,0-.28,0-.42A2.36,2.36,0,0,1,1494.21,261.83Z"/></g></g><g id="Brows-2" data-name="Brows"><path class="cls-8" d="M1415.66,247.66a1.81,1.81,0,0,1-.56-3.48,26.47,26.47,0,0,1,5-1.63c3.84-.43,17.81.8,18.4.85a1.82,1.82,0,0,1-.29,3.62h0c-3.93-.34-14.79-1.18-17.67-.85a26.25,26.25,0,0,0-4,1.37A1.83,1.83,0,0,1,1415.66,247.66Z"/><path class="cls-8" d="M1504.23,254a1.78,1.78,0,0,1-.79-.25,27.34,27.34,0,0,0-3.75-1.92c-2.81-.74-13.67-1.47-17.62-1.69a1.81,1.81,0,1,1,.2-3.62c.6,0,14.61.81,18.34,1.8a26.16,26.16,0,0,1,4.68,2.31,1.82,1.82,0,0,1-1.06,3.37Z"/></g><path id="Hair-2" data-name="Hair" class="cls-8" d="M1528.41,258.24s37.85-54.25,8.91-88.15c-14.47-17-61.71-32.67-97.53-17-3.41,1.5-24.42,14.92-26.18,17.94-13.69,23.49-1.77,76.1-1.77,76.1,6.72-36.86,7.5-49.53,18.29-56.37,5.4-3.42,22.17,15.8,28.08,15.8,17.6,0,23.28-1.81,27.26-3.18,12.67-4.36,19-11,28.14-7.71,14,5,14.32,22.55,14.85,34.41C1529.09,244.28,1528.41,258.24,1528.41,258.24Z"/><path id="Mouth" class="cls-14" d="M1452.72,314.53c-10.59-.77-19.91-3-25.67-6.71-.53-.33-1.25,0-1.17.55,1.53,10.95,12.21,19.95,25.78,20.92s25.43-6.4,28.51-17c.15-.53-.51-1-1.08-.7C1472.85,314.43,1463.32,315.29,1452.72,314.53Z"/></g><path class="cls-8" d="M1450.83,304.54s-4.72,10.74,4.12,13.43,40.1,5.55,46.89-8.18c0,0-19.1.42-24.93-2.4S1455.81,292.52,1450.83,304.54Z"/><path class="cls-8" d="M1449.88,303.3s3.18,11-4.17,13.15-32.92,3.06-37.59-11.06c0,0,15.49,1.59,20.4-.86S1446.58,291,1449.88,303.3Z"/><path class="cls-16" d="M1558,668.53a3.57,3.57,0,0,1-3.65,3.55l-182.58-1.64a4.76,4.76,0,0,1-4.75-5.38l1.32-21.47a3,3,0,0,1,3-2.74l182.82.86a3.57,3.57,0,0,1,3.6,3.48Z"/><path class="cls-2" d="M1490.8,1161.4v14.85h85V1161.4a33,33,0,0,0-33-33h-19.11A33,33,0,0,0,1490.8,1161.4Z"/><rect class="cls-3" x="1490.8" y="1168.2" width="85.02" height="19.45"/><polygon class="cls-18" points="568.79 871.56 547.55 871.56 541.81 803.75 574.53 803.75 568.79 871.56"/><polygon class="cls-18" points="1396.33 871.56 1375.09 871.56 1369.35 803.75 1402.07 803.75 1396.33 871.56"/><path class="cls-19" d="M1377.9,525.43V633.51H528.14V525.43A174.68,174.68,0,0,1,702.82,350.76c42.58,0,89.6,11.74,89.6,11.74,0-6.42,20.31-11.3,51.28-14.66,31.63-3.43,74.34-5.27,117.89-5.51,93.14-.55,190,6.17,190,20.17,0,0,35.27-11.74,62.22-11.74C1310.32,350.76,1377.9,429,1377.9,525.43Z"/><polygon class="cls-20" points="1421.8 618.61 500.37 618.6 500.31 814 1421.8 814 1421.8 618.61"/><path class="cls-21" d="M559.33,483.19V693.51a43.94,43.94,0,0,1-43.93,44H481a43.94,43.94,0,0,1-43.93-44V483.19A43.92,43.92,0,0,1,481,439.27H515.4a43.93,43.93,0,0,1,43.93,43.92Z"/><rect class="cls-21" x="1354.79" y="439.27" width="122.28" height="297.33" rx="36.63"/><path class="cls-21" d="M1403.15,736.56H520a50.9,50.9,0,0,1-50.9-50.9V665.17A50.9,50.9,0,0,1,520,614.26h883.12a50.9,50.9,0,0,1,50.9,50.91v20.49A50.9,50.9,0,0,1,1403.15,736.56Z"/><path class="cls-22" d="M978.75,414.28c-24,13.35-24-11.48-41.48-8.43S925.21,513.23,899,540.71s-27.48-69.43-32.48-110S841.43,389,842.35,409.9c1.66,37.36-39.14,56.88-22.48-18,3.57-16.1,6.36-30.88,13.39-42.18,42.08-4.57,98.93-7,156.89-7.34C990.15,342.33,1002.72,400.9,978.75,414.28Z"/><path class="cls-5" d="M1058,623.46s65.7-15,37.55-34.28-66.64-11.74-50.69-4.23,61,8.49,62-8-58.19-56.41-76-41.12,43.19,27.49,76,9.66-54.45-52.61-47.88-38.51,35.67,14.05,61,0"/><path class="cls-23" d="M1006.33,614.26l-35.66,26.59,52.56-17.39,9.52,17.39-12,15.61s35.67-18.75,38.8-18.63,31.91,9.71,31.91,9.71L1079.16,632l61.08-8.56,50.51,4.39s-58-13.59-59.9-13.59Z"/><polygon class="cls-23" points="1223.14 439.27 1226.9 418.68 1254.12 400.57 1229.71 426.04 1233.47 439.27 1247.55 432.85 1265.38 439.27 1244.26 439.27 1223.14 453.64 1215.66 476.83 1215.09 453.29 1207.19 439.27 1223.14 439.27"/><path class="cls-23" d="M671.68,613.83l8.26,9.63-8.26,11.9s11.39-4.88,35.05-3.34,27.42,4.09,47.13,0,48.64-20.16,37.93-17.76"/><path class="cls-24" d="M751.78,612.86s1.88-8.77-7.5-14.68-8.7,7.34-8.7,7.34-1.63-12.92-9.14-7-3.41-21.84-15.78-14-4.87,21.86-4.87,21.86l-15.95,5.54,8.45,11.57s18.68.21,24.83,0,11.77,8.07,20.22,4.39S751.78,612.86,751.78,612.86Z"/><path class="cls-23" d="M483.6,510.54s26.61-31.42,24.08-27.4-15.08,36.54-15.08,36.54l7.71,23.76,13.92,16.61-21.63-14.5-7.55-25.87-7.19,1.74-5.64,11.72,2.75-22.6Z"/><path class="cls-25" d="M814.34,487.5s-4.12,23.77,0,27.53,16.63-19.4,10.37-27.53S814.34,487.5,814.34,487.5Z"/><line class="cls-5" x1="791.79" y1="408.75" x2="791.79" y2="587.4"/><line class="cls-5" x1="1151.72" y1="402.08" x2="1151.72" y2="580.72"/><circle class="cls-5" cx="986.42" cy="491.4" r="8.26"/><circle class="cls-5" cx="1280.07" cy="495.65" r="8.26"/><circle class="cls-5" cx="671.68" cy="503.74" r="8.26"/><polygon class="cls-26" points="1269.2 684.18 1299.98 684.18 1288.33 698.48 1306.89 685.2 1312.79 675.41 1344.58 675.41 1321.44 672.08 1269.2 684.18"/><path class="cls-6" d="M471.11,623l-22.2,31s-87.82-1.82-113.18-15-5-61.21,12-59.65C364,580.82,471.11,623,471.11,623Z"/><path class="cls-6" d="M336.07,420.53s-26.2,5.16-25.8,17.17,10.86,181,10.86,181c1.31,10.85,14,22.27,33.6,18.33h0c12.75-1.2,22.76-11.62,22.34-23.25l-15-170.17c-1.66-15.74-8.78-26.66-26-23.05Z"/><path class="cls-2" d="M358.33,409.94c-5.43-18.72,2.27-15.08-18.7-9-18.61,5.4-30.59,21.84-29.27,38.56h0l-.07,71,63.35-5L364,431.49C364.2,428,359.36,413.47,358.33,409.94Z"/><path class="cls-6" d="M428.9,609.45s30,12.36,34.42,9.5,6.16-11.8,16.67-17.11,27.09-4.22,31.51-.67,1.26,9.29,1.26,9.29l-2.57,1.44s8.29-1.59,10.48,5-5.69,10.63-13,10.29c0,0,14.17,1.16,11,6.8s-11.41-2.08-22.35,5.21-16,16.33-22.59,17.12-37-3.26-37-3.26Z"/><path class="cls-7" d="M488.35,628.82s16.37-3,21.73-1.56"/><path class="cls-7" d="M488.35,612.86s16.37-3,21.73-1.56"/><path class="cls-6" d="M1448.89,623.37l22.2,31s87.82-1.82,113.18-15,5-61.2-12-59.65C1556,581.18,1448.89,623.37,1448.89,623.37Z"/><path class="cls-6" d="M1583.93,420.89s26.2,5.15,25.8,17.17-10.86,181-10.86,181c-1.31,10.85-14,22.26-33.6,18.32h0c-12.75-1.2-22.77-11.62-22.34-23.25l15-170.17c1.66-15.74,8.77-26.65,26-23Z"/><path class="cls-2" d="M1561.67,410.3c5.43-18.73-2.27-15.08,18.7-9,18.61,5.4,30.59,21.84,29.27,38.55h0l.07,71-63.35-5,9.6-74.06C1555.8,428.33,1560.64,413.82,1561.67,410.3Z"/><path class="cls-6" d="M1491.1,609.81s-30,12.35-34.43,9.5-6.15-11.81-16.66-17.11-27.09-4.23-31.51-.68-1.26,9.3-1.26,9.3l2.57,1.44s-8.29-1.6-10.48,5,5.69,10.63,13,10.28c0,0-14.17,1.16-11,6.81s11.41-2.08,22.35,5.2,16,16.33,22.59,17.12,37-3.26,37-3.26Z"/><path class="cls-7" d="M1431.65,629.18s-16.37-3-21.73-1.56"/><path class="cls-7" d="M1430.56,614.18s-16.37-3-21.73-1.56"/></g></g></svg>