<svg xmlns="http://www.w3.org/2000/svg" viewBox="0 0 1756.17 1339.78"><defs><style>.cls-1{isolation:isolate;}.cls-2,.cls-8{fill:#d3e1f4;}.cls-3{fill:#6579b8;}.cls-4{fill:#2b5168;}.cls-13,.cls-24,.cls-28,.cls-5{fill:none;stroke-miterlimit:10;}.cls-5{stroke:#1e3744;}.cls-13,.cls-24,.cls-5{stroke-width:3px;}.cls-6{fill:#ffb382;}.cls-7{fill:#c3d1e0;}.cls-8{stroke:#1e2842;stroke-linecap:round;stroke-linejoin:round;stroke-width:2px;}.cls-9{fill:#b6c6d8;}.cls-10,.cls-22{fill:#1e3744;}.cls-11{fill:#d0550c;}.cls-12,.cls-26{fill:#f88720;}.cls-13{stroke:#aa6243;}.cls-14{fill:#77463d;}.cls-15{fill:#42637d;}.cls-16{fill:#d26665;}.cls-17{fill:#f9fffc;}.cls-18{fill:#111;}.cls-19{fill:#f8f8f8;}.cls-20{fill:#445c87;}.cls-21,.cls-25{fill:#fff;}.cls-21{opacity:0.18;}.cls-22{opacity:0.51;}.cls-23{fill:#333;opacity:0.46;mix-blend-mode:multiply;}.cls-24{stroke:#4e7687;}.cls-26{opacity:0.11;}.cls-27{fill:#e8e5da;}.cls-28{stroke:#ccc;stroke-width:0.75px;}.cls-29,.cls-30{fill:#c3d2e2;}.cls-30{opacity:0.24;mix-blend-mode:overlay;}</style></defs><title>Пак_1_1</title><g class="cls-1"><g id="холодильник"><path class="cls-2" d="M1091.27,1136.76v29.66h-133v-.81a18,18,0,0,1,.49-3.67A34.63,34.63,0,0,1,989,1135l42.43-4.66c2.22-.88,5.07-.84,6.77.64,8,7,16.73,18.31,41.07,6C1081,1136.05,1090.87,1135.08,1091.27,1136.76Z"/><rect class="cls-3" x="958.3" y="1166.42" width="132.96" height="20.56" transform="translate(2049.57 2353.4) rotate(-180)"/><path class="cls-2" d="M1256.53,1136.76v29.66h-133v-.81a18.65,18.65,0,0,1,.48-3.67,34.65,34.65,0,0,1,30.18-27l42.44-4.66c2.22-.88,5.07-.84,6.76.64,8,7,16.74,18.31,41.08,6C1246.28,1136.05,1256.14,1135.08,1256.53,1136.76Z"/><rect class="cls-3" x="1123.57" y="1166.42" width="132.96" height="20.56" transform="translate(2380.11 2353.4) rotate(-180)"/><path class="cls-4" d="M1001.66,1133.58,1053,634.1h182.42l1.25,98.38,25.3,422.16L1154.23,1135l-10.81-402.14H1132c0,1.29-34.75,415.57-34.75,415.57Z"/><path class="cls-5" d="M1085.78,923.58s-25.24,18.48-46.83-9.94"/><path class="cls-5" d="M1225.55,916.67s-18.74,25-47.69,4.14"/><path class="cls-6" d="M922.16,503.5l-26.78,18.87s42.17,99.56,62.74,119.39,51.48-19.61,44.61-35.22C996.15,591.58,922.16,503.5,922.16,503.5Z"/><path class="cls-6" d="M1043.41,424.85s21.47,11.34,17.75,22.76-58.37,171.62-58.37,171.62c-4.27,10.06-19.6,17.5-37.34,8.28h0c-11.92-4.69-18.64-17.48-15-28.52l53.36-162.32c6-14.65,24.09-20.06,39.61-11.82h0"/><path class="cls-7" d="M1082.34,449c5.06-18.82-7.25-44.28-28.95-46.61-20.29-2.18-37.51,5.09-45,20.06l0,0-34.12,62,69.92,35.23,33.76-61A32,32,0,0,0,1082.34,449Z"/><path class="cls-8" d="M879.39,396c-3.62-1.49-44.84-66.73-44.84-66.73l58,60.23Z"/><path class="cls-9" d="M879.2,400.4c-.23.09-8.15-8.23-8.15-8.23l15.57-12.79L896,389.45Z"/><path class="cls-10" d="M892.78,423s-13,3.15-19.64,1.07S869,435.64,880,433.48c5.71-1.12,15.62-2.12,15.62-2.12Z"/><path class="cls-11" d="M826.25,496s16.68,21.56,29.83,35.14c.24.25,4.21-3,10.32-8.31,22.23-19.26,72.6-65.36,72.56-65.89-.28-.84-36.92-30.84-36.92-30.84l-64.37,59.38Z"/><path class="cls-6" d="M882.18,443.57A54.66,54.66,0,0,1,902,462.66c2.89,4.75,3.95,7.38,4.26,10.89.73,8.54-18.32,4.43-18.32,4.43s7.54,10-.5,10.82-20.22-9.43-20.22-9.43,19,11.79,17,14.76S867.57,498.66,865,494s-13.92-13.33-14.13-18.58,6.43-8.56,6.43-8.56,7.21-12.21,11.48-12.15c0,0,10-11.54,13.43-11.11Z"/><path class="cls-10" d="M826.25,496s16.68,21.56,29.83,35.14c.24.25,4.21-3,10.32-8.31l-28.73-37.35Z"/><path class="cls-10" d="M887.49,429.47c-.22-.55-2.64-13.92-8.47-20.88s-2.8-11.35-2.8-11.35l16.21-13.65S908,396.12,913.05,398.8a13.69,13.69,0,0,1,6.44,7.49Z"/><path class="cls-12" d="M946.05,439.6l1.63-3.88S923.73,406,916.44,401.89l-33.25,16.18,6.54,19.53L917.56,465Z"/><path class="cls-10" d="M953.78,453.94s-6.22-11.95-7.22-13.5-30.23,24.66-30.23,24.66l15.6,10Z"/><path class="cls-6" d="M900.45,492.45s6.55-15.54,13.46-20.09c0,0-14.85-21.4-9.45-25.59S923,459.2,925.1,464.87s5.51,21.59,1.13,27.58,22.34,46.92,22.34,46.92l-48.09-6.66s-14-22.86-18-24.84S900.45,492.45,900.45,492.45Z"/><path class="cls-13" d="M877,486s-3.42-1-11.34-10.27"/><path class="cls-13" d="M889.36,478.69s-10.89-8.12-15.41-14.87"/><path class="cls-13" d="M964.78,555.37s13.69,17.51,15.44,33.17"/><path class="cls-14" d="M1212.8,218s-9.51,75.19-13.35,83.07-6.38,8-6.38,8l3.52-62.28,7-31.27Z"/><path class="cls-2" d="M1256.75,400.76s-5.63,76.05-13.19,155.27c-3.17,33.23-197.6,15-202.25-27.77-4.16-38.34-11.22-79.7-14.23-122.7l20.38-6.05,19.38-7.38,56.26-21.47,29.49.37,19.05,6.65,54.61,10.9v0l.14,0,.22.08.61.24.39.16,1,.38,1.78.71,1.35.53,1.45.58,1.49.6,3,1.18.73.29,1.36.55,1.24.5,1.09.43,1.53.61h0Z"/><path class="cls-4" d="M1243.56,556c-3.17,33.23-6.69,67-10.26,96a2.59,2.59,0,0,1-.09.4l-178.86-5.24c-3.61-36.41-8.39-76.16-13-118.91a1.27,1.27,0,0,1,.84-.18c8.43,1.44,6.18-98.38,5.31-128.57l26.06-9.93c1.43,26.94-.4,94.59,5.46,99.41,21.34,17.56,72,8.94,80.22,8.94,21.33,0,26.09-118.38,26.09-118.38l31.52,7.11c2.68,1.62-5.92,79.83-9.06,127.77C1204.58,562.56,1243.56,556,1243.56,556Z"/><polygon class="cls-15" points="1172.1 541.7 1169.88 616.68 1073.18 616.68 1072.8 541.7 1172.1 541.7"/><path class="cls-6" d="M1107.13,377.68,1131,427.3a8.31,8.31,0,0,0,14.87.22l25.8-49.84v-36.8L1125.12,339l-17.53-.71,0,3.53-.19,15.79Z"/><g id="Face_02"><path class="cls-16" d="M1107.36,354.7c6.36,4.12,64.28,12,64.28,12V338l-46.52-1.89-17.57,2.82Z"/><g id="ears"><path class="cls-6" d="M1079.55,274.35l1.79-24.92-10-.72c-5.24-.38-10.07,5.39-10.57,13.7-.73,12.12,3.14,16.35,8.39,16.73l10.2.73C1079.37,278.05,1079.42,276.21,1079.55,274.35Z"/><path class="cls-16" d="M1081,258.19l-5.43-.39c-3.09-.23-5.83,2.5-6.09,6.07h0c-.25,3.56,2.07,6.65,5.16,6.87l5.43.39Z"/><path class="cls-6" d="M1193.07,282.52l1.79-24.93,10,.72c5.25.38,9.2,6.77,8.51,15.07-1,12.1-5.45,15.73-10.7,15.36l-10.21-.74Q1192.86,285.3,1193.07,282.52Z"/><path class="cls-16" d="M1194,266.31l5.44.39c3.09.23,5.41,3.32,5.15,6.88h0c-.25,3.56-3,6.29-6.08,6.07l-5.44-.39Z"/></g><path id="Face" class="cls-6" d="M1154.94,181.7,1131.71,180c-25.81-1.86-48.65,20.62-50.76,49.95l-5.42,75.34c-.64,8.92,3.82,27.32,16.72,40.35a29.48,29.48,0,0,0,18.92,8.65l28.47,1.95a29.49,29.49,0,0,0,19.77-5.87c14.64-11,32.56-27.77,33.2-36.67L1198,238.4C1200.14,209.07,1180.75,183.56,1154.94,181.7Z"/><path id="nose" class="cls-16" d="M1120.31,301.06a51.61,51.61,0,0,1-12.36-2.34c-1.41-.47-2.94.25-2.3,1.09,2.33,3.06,7.75,6.18,14.27,6.65s12.33-1.85,15.08-4.54c.75-.74-.66-1.67-2.12-1.41A51.55,51.55,0,0,1,1120.31,301.06Z"/><g id="Eyes"><g id="Eye_L"><circle class="cls-17" cx="1095.85" cy="263.18" r="8.38" transform="translate(754.75 1337.34) rotate(-85.89)"/><path class="cls-18" d="M1099.9,263.47a2.39,2.39,0,0,1-.74-4.58,5.35,5.35,0,0,0-2.92-1.11,5.42,5.42,0,1,0,5,5.79c0-.14,0-.27,0-.41A2.36,2.36,0,0,1,1099.9,263.47Z"/></g><g id="Eye_R"><circle class="cls-17" cx="1157.46" cy="267.61" r="8.38" transform="translate(807.52 1402.9) rotate(-85.89)"/><path class="cls-18" d="M1161.51,267.9a2.38,2.38,0,0,1-.74-4.58,5.42,5.42,0,1,0,2.1,4.68c0-.14,0-.27,0-.41A2.36,2.36,0,0,1,1161.51,267.9Z"/></g></g><g id="Brows"><path class="cls-14" d="M1083,253.75a1.82,1.82,0,0,1-.56-3.49,27.13,27.13,0,0,1,5-1.62c3.84-.44,17.8.79,18.4.85a1.81,1.81,0,0,1-.29,3.61h0c-3.94-.35-14.78-1.18-17.67-.86a27,27,0,0,0-4,1.38A1.81,1.81,0,0,1,1083,253.75Z"/><path class="cls-14" d="M1171.52,260.11a1.78,1.78,0,0,1-.79-.25,27.34,27.34,0,0,0-3.75-1.92c-2.8-.74-13.66-1.47-17.6-1.68a1.82,1.82,0,0,1,.2-3.63c.59,0,14.59.82,18.32,1.8a27.58,27.58,0,0,1,4.68,2.31,1.82,1.82,0,0,1-1.06,3.37Z"/></g><path id="Hair" class="cls-14" d="M1195.68,264.31s37.83-54.21,8.91-88.09c-14.46-16.94-61.67-32.65-97.46-16.94-3.42,1.49-24.41,14.9-26.17,17.92-13.68,23.48-1.77,76.05-1.77,76.05,6.71-36.83,7.49-49.49,18.28-56.33,5.39-3.42,22.15,15.79,28.06,15.79,17.59,0,23.26-1.81,27.24-3.17,12.67-4.36,19-11,28.13-7.72,14,5,14.3,22.55,14.83,34.4C1196.36,250.36,1195.68,264.31,1195.68,264.31Z"/><path id="Mouth" class="cls-19" d="M1120,320.57c-10.58-.76-19.89-3-25.65-6.7-.53-.34-1.25,0-1.17.54,1.52,10.95,12.21,19.94,25.76,20.92s25.42-6.4,28.5-17c.15-.53-.52-1-1.08-.71C1140.16,320.48,1130.63,321.33,1120,320.57Z"/></g><path class="cls-11" d="M1238.11,683.79a3.56,3.56,0,0,1-3.64,3.55L1052,685.7a4.76,4.76,0,0,1-4.75-5.38l1.32-21.45a3,3,0,0,1,3-2.74l182.71.86a3.57,3.57,0,0,1,3.59,3.48Z"/><path class="cls-20" d="M1118.32,681.73V662.48a7.74,7.74,0,0,1,7.74-7.74h30.55a7.74,7.74,0,0,1,7.75,7.74v19.25a7.75,7.75,0,0,1-7.75,7.75s-32.32,1.53-35.91,0S1118.32,681.73,1118.32,681.73Z"/><path class="cls-12" d="M1107.2,681.41v27.35c0,1.12-1.46,2-3.27,2H1060.2c-1.81,0-3.27-.91-3.27-2V681.41c0-1.12,1.46-2,3.27-2h43.73C1105.74,679.38,1107.2,680.29,1107.2,681.41Z"/><polygon class="cls-11" points="1090.31 652.41 1091.1 696.19 1072.8 694.06 1076.1 652.41 1090.31 652.41"/><path class="cls-14" d="M1122.34,309.24s-4.35,10.88,4.57,13.27,40.25,4.18,46.56-9.77c0,0-19.06,1.07-25-1.54S1126.91,297.06,1122.34,309.24Z"/><path class="cls-14" d="M1121.35,308s3.55,10.88-3.72,13.27-32.78,4.18-37.92-9.77c0,0,15.52,1.07,20.34-1.54S1117.63,295.85,1121.35,308Z"/><rect class="cls-10" x="681.3" y="952.19" width="38.36" height="385.27" transform="translate(-510.37 1723.72) rotate(-84.09)"/><rect class="cls-2" x="529.59" y="236.11" width="437.02" height="913.98" rx="19.84" transform="translate(1417.87 1462.15) rotate(-173.87)"/><line class="cls-5" x1="554.72" y1="790.45" x2="910.89" y2="827.31"/><path class="cls-21" d="M959.63,289.54,630.69,255.49a15.42,15.42,0,0,0-16.92,13.75l-22,212.41s61.74-154.95,182-163.21c119.73-8.22,168.6,39.07,192.79,61.88l7.56-73A16.2,16.2,0,0,0,959.63,289.54Z"/><path class="cls-22" d="M567.5,929.41a12.75,12.75,0,0,0,5.54-.63,14.77,14.77,0,0,0,5.33-3.3A19.16,19.16,0,0,0,584,913.7l7.67-69.28c.8-7.28-2.27-13.93-7.35-17.08l0,0a12.8,12.8,0,0,0-5.27-1.83,13.55,13.55,0,0,0-10.85,3.94,19.06,19.06,0,0,0-5.63,11.78l-7.66,69.27C553.79,920,559.45,928.52,567.5,929.41Z"/><path class="cls-23" d="M573,928.78a14.77,14.77,0,0,0,5.33-3.3A19.16,19.16,0,0,0,584,913.7l7.67-69.28c.8-7.28-2.27-13.93-7.35-17.08l0,0Z"/><path class="cls-22" d="M586,766.67a12.58,12.58,0,0,0,5.54-.64,14.47,14.47,0,0,0,5.33-3.3A19.17,19.17,0,0,0,602.53,751L615.45,627.3c.81-7.29-2.27-13.94-7.35-17.09l-.05,0a12.48,12.48,0,0,0-5.26-1.83,13.53,13.53,0,0,0-10.86,3.93,19.11,19.11,0,0,0-5.63,11.78L573.38,747.73C572.32,757.29,578,765.78,586,766.67Z"/><path class="cls-23" d="M591.57,766a14.47,14.47,0,0,0,5.33-3.3A19.17,19.17,0,0,0,602.53,751L615.45,627.3c.81-7.29-2.27-13.94-7.35-17.09l-.05,0Z"/><path class="cls-6" d="M1007.05,495.45l-4.45,39.49s69.25,59.93,98.11,67.41,46.61-43.89,32.37-54.55C1119.43,537.58,1007.05,495.45,1007.05,495.45Z"/><path class="cls-6" d="M1253,433s15,20.44,6.27,29.46-133.08,134.36-133.08,134.36c-8.59,7.48-26.37,7.47-38.81-9.28h0c-9-9.83-9.51-24.89-1.06-33.6L1210.45,426c12.28-11,31.76-7.83,42.55,7h0"/><path class="cls-2" d="M1223.43,406.31c17.27-11,29.25-16.87,41.27,3.13,10.67,17.74,10,56.8-2.71,69.17l-41.34,50.16-56.29-61.3,50.73-53.57A33.28,33.28,0,0,1,1223.43,406.31Z"/><path class="cls-6" d="M1054.65,515.13s-32.39-9.61-34.14-14.85,2.74-13.61-2.31-24.8S999,454.3,993.09,454.29,986,461,986,461l1.15,2.86s-5.68-6.73-11.8-2.78-2.36,12.34,3.81,16.86c0,0-12.25-8.34-13.37-1.67s10.62,5.79,14.72,18.86,2.28,23.72,7.11,28.68,32.12,21.59,32.12,21.59Z"/><path class="cls-13" d="M993.74,491.89s-11.33-13.13-16.6-15.5"/><path class="cls-13" d="M1002.68,479s-11.33-13.13-16.6-15.5"/><polyline class="cls-24" points="1244.49 499.85 1220.65 528.77 1190.05 495.45"/><line class="cls-13" x1="993.74" y1="528.65" x2="1039.08" y2="564.49"/><polygon class="cls-25" points="665.46 428 654.29 491.89 706.19 495.89 714.29 432.01 665.46 428"/><path class="cls-26" d="M815.44,433.72s29.92,78.93-12.82,111.68S671.55,612.34,691.49,663.63,757,774.31,771.27,763.14s32.33-81,79.57-99.51,104.42-3.44,98.62-75.09S912,502.82,889.36,465,815.44,433.72,815.44,433.72Z"/><polygon class="cls-25" points="789.79 494.8 777.77 562.73 855.2 574.09 871.31 499.71 789.79 494.8"/><polygon class="cls-27" points="771.75 454.29 863.55 461.59 866.4 433.72 771.75 429.47 771.75 454.29"/><path class="cls-26" d="M670.12,710.79s-31.67,12.08-15.83,38.5,18.37-2.71,20.27-12.84S673.88,709,670.12,710.79Z"/><path class="cls-26" d="M744,877.77s-61.47,31.12-30.74,99.11,35.66-7,39.34-33.06S751.24,873.2,744,877.77Z"/><path class="cls-26" d="M612.6,403.71s-13.91,20-22.93,40.7c-1.32,3-2.54,6.1-3.59,9.11-8.23,23.57-.05,27.69-.05,27.69l-2.24,9.23v14.43s31.13-20.73,36.69-39.85,25.4-58.88,12.24-39.82l-13.17,19.05s6.54-35.34,4.66-30.81S612.6,403.71,612.6,403.71Z"/><polygon class="cls-27" points="688.6 414.79 684.29 440.38 694.82 440.38 700.52 414.79 688.6 414.79"/><line class="cls-28" x1="668.22" y1="458.48" x2="704.32" y2="460.7"/><line class="cls-28" x1="668.22" y1="468.61" x2="704.32" y2="470.82"/><line class="cls-28" x1="664.43" y1="477.64" x2="700.52" y2="479.85"/><path class="cls-29" d="M835.06,952.45l-69.48,76.93,56.76-38.46-118,143.88,133.59-133.91-15.57,38.49,64.47-86.93s-55.08,37-44,31.34,63.74-91.18,63.74-91.18L860.87,941l-13.93-28.44-64.27,63.56Z"/><path class="cls-30" d="M856.78,591.22c-69.72-27.62-141.84,35.54-125.15,108.65,5,21.88,5.58,42.57-4.06,55.14-28.49,37.15-140.91,155.48-148.81,213.14s22.41,188.79,108.41,137.47S832.35,1009,858.32,959C878.74,919.66,984.1,641.64,856.78,591.22Z"/></g></g></svg>