<svg xmlns="http://www.w3.org/2000/svg" xmlns:xlink="http://www.w3.org/1999/xlink" viewBox="0 0 1796.79 949.08"><defs><clipPath id="clip-path"><path d="M1298.3,499.48c-.6-11.67,9.51-21.67,22.57-22.35,11.6-.59,21.61,6.35,24.14,16.09h0l12.21,40.65-45.42,11.86-12.12-40A19,19,0,0,1,1298.3,499.48Z" fill="none"/></clipPath><clipPath id="clip-path-2"><path d="M1220.34,506.65c3-11.29-4.35-26.55-17.36-27.95-12.17-1.31-22.49,3-27,12h0l-20.46,37.19L1197.44,549l20.24-36.57A19.39,19.39,0,0,0,1220.34,506.65Z" fill="none"/></clipPath><clipPath id="clip-path-3"><path d="M883.67,493.13c-1.55-11.58-13.33-19.56-26.3-17.82-11.5,1.55-20.06,10.22-20.77,20.24v1l-4.53,42.21,46.81,2.37,4.56-41.54A19.21,19.21,0,0,0,883.67,493.13Z" fill="none"/></clipPath><clipPath id="clip-path-4"><path d="M964.15,496.64c1.62-11.57,14.38-22.73,26.9-18.93,11.71,3.55,19.5,11.6,20.15,21.63h0l4.29,42.24-46.84,3L964.32,503A18.68,18.68,0,0,1,964.15,496.64Z" fill="none"/></clipPath><clipPath id="clip-path-5"><path d="M585.35,492.72c-1.56-11.59-13.33-19.59-26.3-17.82-11.5,1.55-20.07,10.23-20.77,20.23h0l-4.53,42.21,46.83,3.31,4.57-41.52A19.17,19.17,0,0,0,585.35,492.72Z" fill="none"/></clipPath><clipPath id="clip-path-6"><path d="M665.82,496.22c1.62-11.57,14.38-22.73,26.9-18.93,11.71,3.55,19.5,11.6,20.15,21.63h0l4.28,42.21-46.85,3L666,502.57A18.56,18.56,0,0,1,665.82,496.22Z" fill="none"/></clipPath></defs><title>мужики без фона</title><g id="Слой_2" data-name="Слой 2"><g id="Слой_1-2" data-name="Слой 1"><g id="Слой_10" data-name="Слой 10"><line x1="1642.76" y1="829.23" x2="171.45" y2="829.23" fill="none" stroke="#42637d" stroke-miterlimit="10" stroke-width="5"/><path d="M1034.78,103.76c0-17.85,16-32.33,35.8-32.33.62,0,1.24.06,1.86.09a56.1,56.1,0,0,1,40.09-16.25c20.89,0,39,10.78,47.86,26.51a33.21,33.21,0,0,1,19.74-6.33c17.31,0,31.35,12.68,31.35,28.31h-62.71c-12.47,0-14-.08-36.24-.08h-6.16s11.89,0,0,.08" fill="none" stroke="#42637d" stroke-miterlimit="10" stroke-width="5"/><polyline points="433.22 781.63 433.22 426.89 143.95 426.89" fill="none" stroke="#42637d" stroke-miterlimit="10" stroke-width="5"/><polyline points="359.93 575 359.93 496.95 287.77 496.95" fill="none" stroke="#42637d" stroke-miterlimit="10" stroke-width="5"/><polyline points="359.93 738.18 359.93 660.13 287.77 660.13" fill="none" stroke="#42637d" stroke-miterlimit="10" stroke-width="5"/><polyline points="224.51 575 224.51 496.95 152.35 496.95" fill="none" stroke="#42637d" stroke-miterlimit="10" stroke-width="5"/><polyline points="1751.54 755.96 1684.24 755.96 1681.63 615.3 1641.19 615.3 1641.19 718.24 1554.32 717.75 1554.32 505.81 1510.61 507.32 1510.61 718.24 1394.67 718.24" fill="none" stroke="#42637d" stroke-miterlimit="10" stroke-width="5"/><polyline points="1037.02 306.25 1108.23 306.25 1034.78 186.5 481.68 188.47 413.28 295.48 413.28 402.94" fill="none" stroke="#42637d" stroke-miterlimit="10" stroke-width="5"/><line x1="1108.23" y1="306.27" x2="1108.23" y2="507.11" fill="none" stroke="#42637d" stroke-miterlimit="10" stroke-width="5"/><line x1="1102.69" y1="822.95" x2="1102.69" y2="652.55" fill="none" stroke="#42637d" stroke-miterlimit="10" stroke-width="5"/><line x1="825.98" y1="306.27" x2="727.4" y2="306.27" fill="none" stroke="#42637d" stroke-miterlimit="10" stroke-width="5"/><polyline points="682.62 173.38 682.62 70.08 640.44 70.08 640.44 173.38" fill="none" stroke="#42637d" stroke-miterlimit="10" stroke-width="5"/><path d="M1640.41,820.22s-5.37-75.13-72.78-59.87c-50.23,11.37-41.48,60.65-41.48,60.65" fill="none" stroke="#42637d" stroke-miterlimit="10" stroke-width="5"/><path d="M1518.07,770.81s-45.53-43.33-94.83,19.85" fill="none" stroke="#42637d" stroke-miterlimit="10" stroke-width="5"/><path d="M263.51,823.22c18.86-33.22,19.05-67-6-101.22-15.17-20.75-59-34.74-84.29-30.33-32.46,5.67-52.51,34.34-62.34,63.75" fill="none" stroke="#42637d" stroke-miterlimit="10" stroke-width="5"/><path d="M135.31,690.58S84.59,615.89,33,675.13" fill="none" stroke="#42637d" stroke-miterlimit="10" stroke-width="5"/><path d="M1790.48,690.49s-167.55-255.83-189.33-329.42-45.25-162.36-46.57-175.85c0,0-19.33,22.15-20.68,24.89l-24.06-11,12.47,27-15.75,46.45-13.86,1.79,7.3,23.35s-3.72,47.07.91,59.71c0,0-71.24-108.18-8.23-178.7,0,0-26.41,6.42-35,11.37l-3.43-26.45L1434,203.41l-50.45,39s-25.58.33-25.78,2.06,7,21.29,7,21.29-35.33,44.15-30.82,35.6c1.45-2.75-23.68-100.26,31.5-139s133.47-31,133.47-31S1440,115.09,1430,116.82l14.22-25.33L1413.24,113s-38.93,9.32-47.31,13.82l-9-29.58-11.77,34.4s-53.43,36.2-44.25,27.52c2.12-2,2.32-100.64,73.36-115.84s117.19,1.46,156.74,59.52" fill="none" stroke="#42637d" stroke-miterlimit="10" stroke-width="5"/><path d="M.15,483.25s14.29-.84,38.77-89.55S89.72,198,91.15,181.83c0,0,22.44,26.17,24,29.43l27.6-13.65-14.13,32.63,18.53,55.4,16,1.88-8.21,28.15s4.66,56.38-.56,71.63c0,0,81.14-131.2,8-214.51,0,0,30.45,7.16,40.37,12.93l3.74-31.8,23.66,47.31L288.54,247s29.45-.12,29.7,2-7.92,25.68-7.92,25.68,41,52.24,35.77,42.08C344.4,313.42,372.54,196,308.7,150.58s-153.92-34.45-153.92-34.45S222.45,95.42,234,97.29L217.43,67.2l35.8,25.18S298.12,102.77,307.8,108l10.08-35.67,13.82,41s61.81,42.34,51.17,32.11C380.42,143.09,379.39,24.78,297.48,8s-134.9,4.11-180,74.56" fill="none" stroke="#42637d" stroke-miterlimit="10" stroke-width="5"/><path d="M1575.86,131.13S1597.36,14,1674.37,10.68s116.11,50.71,116.11,50.71l-45.33-13.26,13,22.36-73.71,14.74-29.94-12,18.4,24s-56,31-60.34,41c0,0,59.08-26.47,91.4-21.63" fill="none" stroke="#42637d" stroke-miterlimit="10" stroke-width="5"/><path d="M1588.05,185.71s71.74,180.46,82.83,211.69,119.6,160.5,119.6,160.5" fill="none" stroke="#42637d" stroke-miterlimit="10" stroke-width="5"/><path d="M1305.85,363.84s-5.69,45.08-8,49.8-3.82,4.76-3.82,4.76l2.11-37.34,4.18-18.74Z" fill="#77463d"/><path d="M1225.69,919v17.78H1146v-.49a10.78,10.78,0,0,1,.29-2.2,20.73,20.73,0,0,1,18.09-16.16l25.45-2.8a4.07,4.07,0,0,1,4,.38c4.78,4.18,10,11,24.63,3.6C1219.54,918.55,1225.45,918,1225.69,919Z" fill="#d6a061"/><rect x="1145.98" y="936.74" width="79.71" height="12.33" fill="#d3e1f4"/><path d="M1333.46,479.42c-4-.85-22.41,123.12-21.26,144.9l-108.64,1.14c-4.68-45.89-11.2-95.31-14.54-144.5,13.72-5.28,41.69-15.9,55.75-21.28l17.68.23,17.21-.23S1326.32,477.25,1333.46,479.42Z" fill="#d3e1f4"/><path d="M1172,917.07l30.79-299.45h109.39l.75,59,15.15,242.3-57.73,11-15-254H1250c0,.77-20.72,250-20.72,250Z" fill="#2b5168"/><path d="M1242.88,460.2l7.93,29.65c1.78,3.71,9.59,3.82,11.48.17l19.27-29.82V438.13l-27.9-1.13-10.51-.43v2.12l-.11,9.46Z" fill="#f2b197"/><g id="Face_02-3" data-name="Face 02-3"><path d="M1243,446.43c3.81,2.46,38.54,7.2,38.54,7.2V436.4l-27.9-1.13L1243.15,437Z" fill="#d26665"/><g id="ears-3"><path d="M1226.35,398.25l1.07-14.94-6-.43c-3.15-.23-6,3.23-6.34,8.22-.44,7.26,1.88,9.8,5,10l6.11.44C1226.23,400.47,1226.27,399.36,1226.35,398.25Z" fill="#f3a396"/><path d="M1227.15,388.56l-3.26-.23a3.66,3.66,0,0,0-3.65,3.64h0a3.67,3.67,0,0,0,3.1,4.12l3.25.23Z" fill="#d26665"/><path d="M1294.4,403.13l1.07-14.95,6,.43c3.14.23,5.51,4.07,5.1,9-.61,7.26-3.27,9.43-6.41,9.21l-6.12-.44C1294.15,405.35,1294.32,404.26,1294.4,403.13Z" fill="#f3a396"/><path d="M1295,393.43l3.26.24a3.67,3.67,0,0,1,3.09,4.12h0a3.69,3.69,0,0,1-3.65,3.64l-3.26-.23Z" fill="#d26665"/></g><path id="Face-3" d="M1271.54,342.71l-13.92-1c-15.48-1.11-29.17,12.37-30.44,30l-3.24,45.17c-.39,5.34,2.29,16.38,10,24.19a17.67,17.67,0,0,0,11.34,5.18l17.07,1.17a17.71,17.71,0,0,0,11.86-3.52c8.77-6.61,19.52-16.65,19.9-22l3.25-45.16C1298.64,359.13,1287,343.82,1271.54,342.71Z" fill="#f2b197"/><path id="nose-3" d="M1250.78,414.27a31.62,31.62,0,0,1-7.41-1.41c-.84-.28-1.76.15-1.38.65,1.4,1.84,4.65,3.71,8.56,4s7.39-1.11,9-2.72c.45-.44-.4-1-1.27-.85A31.41,31.41,0,0,1,1250.78,414.27Z" fill="#d26665"/><g id="Eyes-3"><g id="Eye_L-3" data-name="Eye L-3"><circle cx="1236.06" cy="391.52" r="5.03" transform="translate(756.95 1596.34) rotate(-85.89)" fill="#f9fffc"/><path d="M1238.55,391.73a1.44,1.44,0,0,1-1.34-1.52,1.42,1.42,0,0,1,.89-1.23,3.27,3.27,0,0,0-5.24,2.33,3.25,3.25,0,1,0,6.49.49h0v-.25A1.5,1.5,0,0,1,1238.55,391.73Z" fill="#20353f"/></g><g id="Eye_R-3" data-name="Eye R-3"><circle cx="1272.99" cy="394.19" r="5.03" transform="translate(788.57 1635.65) rotate(-85.89)" fill="#f9fffc"/><path d="M1275.48,394.39a1.44,1.44,0,0,1-1.33-1.53,1.41,1.41,0,0,1,.89-1.22,3.23,3.23,0,1,0,1.26,2.81v-.25A1.48,1.48,0,0,1,1275.48,394.39Z" fill="#20353f"/></g></g><g id="Brows-3"><path d="M1228.42,385.9a1.1,1.1,0,0,1-1-1.18,1.06,1.06,0,0,1,.66-.91,15.77,15.77,0,0,1,3-1c2.3-.26,10.68.47,11,.5a1.09,1.09,0,0,1-.16,2.18h0a98.66,98.66,0,0,0-10.59-.51,14.34,14.34,0,0,0-2.39.82A1.18,1.18,0,0,1,1228.42,385.9Z" fill="#77463d"/><path d="M1281.48,389.72a1.24,1.24,0,0,1-.47-.15,16.51,16.51,0,0,0-2.25-1.16,98.29,98.29,0,0,0-10.55-1,1.07,1.07,0,1,1,.15-2.14c.35,0,8.75.49,11,1.08a15,15,0,0,1,2.81,1.39,1.1,1.1,0,0,1,.38,1.49A1.16,1.16,0,0,1,1281.48,389.72Z" fill="#77463d"/></g><path id="Hair-3" d="M1296,392.23s22.68-32.5,5.34-52.81c-8.67-10.16-37-19.57-58.43-10.16-2,.9-14.63,8.94-15.69,10.75-8.2,14.07-1.06,45.59-1.06,45.59,4-22.08,4.49-29.67,11-33.77,3.23-2.05,13.28,9.47,16.82,9.47,10.55,0,14-1.09,16.33-1.91,7.6-2.61,11.42-6.58,16.87-4.62,8.37,3,8.57,13.51,8.89,20.62C1296.38,383.87,1296,392.23,1296,392.23Z" fill="#965e56"/><path id="Mouth-3" d="M1250.62,426c-6.35-.46-11.92-1.78-15.38-4-.31-.2-.75,0-.7.33.91,6.56,7.32,11.95,15.45,12.54s15.23-3.84,17.08-10.2c.09-.32-.31-.58-.65-.42C1262.68,425.9,1257,426.42,1250.62,426Z" fill="#f8f8f8"/></g><path d="M1273.43,933.36v8.9h50.94v-8.9a19.74,19.74,0,0,0-19.74-19.75h-11.48A19.75,19.75,0,0,0,1273.43,933.36Z" fill="#d6a061"/><rect x="1273.43" y="937.43" width="50.94" height="11.65" fill="#d3e1f4"/><path d="M1222.39,791.13s-15.12,11.08-28.07-6" fill="none" stroke="#1e3744" stroke-miterlimit="10" stroke-width="3"/><path d="M1308.06,795.93s-15.12,11.07-28.07-6" fill="none" stroke="#1e3744" stroke-miterlimit="10" stroke-width="3"/><path d="M1376.74,601.77a48.83,48.83,0,0,0-3-18c-8.45-23-33-89.89-35.09-95.45-2.57-6.73-17.54-3.47-17.54-3.47-10.34,2-16.77,11.35-14,20.43,0,0,38.43,97.19,38.57,98.45,2.54,23,7,78.31,7,78.31s24.58,16.56,20.07.64C1372.21,680.9,1376.15,626.64,1376.74,601.77Z" fill="#f2b197"/><path d="M1298.3,499.48c-.6-11.67,9.51-21.67,22.57-22.35,11.6-.59,21.61,6.35,24.14,16.09h0l12.21,40.65-45.42,11.86-12.12-40A19,19,0,0,1,1298.3,499.48Z" fill="#d3e1f4"/><path d="M1372.15,685.88a48.62,48.62,0,0,1,3.19,13.62c.38,5.29-4.17,16.86-6.7,22.85a3.06,3.06,0,0,1-4,1.61,3,3,0,0,1-.76-.46h0s-5.15,8.35-7,4.7,0-7.58,0-7.58-1,10.78-4.61,8.5c-4-2.49,7.86-21.5,2.23-24.92-4.17-2.54-3.45,13.56-8.21,14.6s-2-17.14,2-29.06c3.49-10.47,3.9-11.83,3.9-11.83Z" fill="#f2b197"/><path d="M1367.76,710.75a111.83,111.83,0,0,1-4,12.75" fill="none" stroke="#aa6243" stroke-miterlimit="10" stroke-width="3"/><path d="M1360.85,707.26s-3.61,14.56-4.86,17.84" fill="none" stroke="#aa6243" stroke-miterlimit="10" stroke-width="3"/><path d="M1313.72,647.41a2.15,2.15,0,0,1-2.15,2.13h0l-109.4-1a2.86,2.86,0,0,1-2.87-2.84,2.56,2.56,0,0,1,0-.39l.79-12.86a1.77,1.77,0,0,1,1.8-1.64l109.54.52a2.13,2.13,0,0,1,2.15,2.08Z" fill="#f88720"/><path d="M1305.51,650.4s5.64-19.43-2.28-22.46-16.06.56-16.06.56l5.9,22.24Z" fill="#d0550c"/><path d="M1326.83,700.13c.17,2.79-3.13,4.94-7.38,4.8l-33.09-1-5.66-.18c-4.25-.14-7.81-2.51-8-5.29l-2.87-48.22-.12-1.87a4,4,0,0,1,2.31-3.67,9.35,9.35,0,0,1,5.08-1.13l4.73.14,2.1.07,29.33.93,2.59.08a8.39,8.39,0,0,1,1.23.11,8.87,8.87,0,0,1,6,3.13h0a3.87,3.87,0,0,1,.77,2l.65,10.9Z" fill="#f88720"/><path d="M1286.36,703.92l-5.66-.18c-4.25-.14-7.81-2.51-8-5.29l-2.87-48.22-.12-1.87a4,4,0,0,1,2.31-3.67,9.35,9.35,0,0,1,5.08-1.13l6.83.21Z" fill="#d0550c"/><line x1="1286.3" y1="673.38" x2="1322.08" y2="674.09" fill="none" stroke="#af5127" stroke-miterlimit="10" stroke-width="3"/><line x1="1286.36" y1="681.04" x2="1322.14" y2="681.74" fill="none" stroke="#af5127" stroke-miterlimit="10" stroke-width="3"/><line x1="1322.08" y1="529.69" x2="1316.9" y2="561.36" fill="none" stroke="#4e7687" stroke-miterlimit="10" stroke-width="3"/><path d="M1200.15,628.37,1178.63,636s-42.55-31-50.49-46.16,18.51-31.8,26.33-25.21C1162,570.93,1200.15,628.37,1200.15,628.37Z" fill="#f2b197"/><path d="M1203.15,482.57s-13.39-5.72-17.3.32-57.93,92-57.93,92c-3.07,5.78-.76,15.73,10.24,20.52h0c6.68,3.77,15.17,2.08,19-3.78l55.48-86.11c4.57-8.3.25-18.79-9.44-22.91h0" fill="#f2b197"/><path d="M1220.34,506.65c3-11.29-4.35-26.55-17.36-27.95-12.17-1.31-22.49,3-27,12h0l-20.46,37.19L1197.44,549l20.24-36.57A19.39,19.39,0,0,0,1220.34,506.65Z" fill="#d3e1f4"/><path d="M1183,604.28s9.59,16.88,12.75,17.18,7.27-3.3,14.18-1.93,14.35,8,15.13,11.31-2.83,4.85-2.83,4.85l-1.75-.27s4.5,2.31,3.09,6.25-6.61,2.92-9.94.05c0,0,6.26,5.78,2.67,7.27s-4.61-5.2-12.47-5.79-13.57,1.81-17-.25-16.25-15.18-16.25-15.18Z" fill="#f2b197"/><path d="M1206.74,638.23s9,4.23,11.16,6.78" fill="none" stroke="#aa6243" stroke-miterlimit="10" stroke-width="3"/><path d="M1209.91,628.5s9,4.23,11.16,6.78" fill="none" stroke="#aa6243" stroke-miterlimit="10" stroke-width="3"/><line x1="1152.27" y1="577.61" x2="1166.05" y2="578.97" fill="none" stroke="#aa6243" stroke-miterlimit="10" stroke-width="3"/><polyline points="1299.93 473.5 1279.6 498.79 1272.67 484.56" fill="none" stroke="#4e7687" stroke-miterlimit="10" stroke-width="3"/><polyline points="1223.9 470.57 1239.35 497.92 1246.28 483.69" fill="none" stroke="#4e7687" stroke-miterlimit="10" stroke-width="3"/><path d="M1197.84,525s-1.84,23.77-1.22,29.47" fill="none" stroke="#4e7687" stroke-miterlimit="10" stroke-width="3"/><path d="M858.53,482.9s-15.32-.45-16.6,6.63-17.21,107.52-17.21,107.52c-.6,6.52,5.37,14.81,17.36,15h0c7.62.91,14.8-3.93,16-10.79l18-100.85c1-9.42-7-17.43-17.55-17.5h0" fill="#ffb382"/><path d="M883.67,493.13c-1.55-11.58-13.33-19.56-26.3-17.82-11.5,1.55-20.06,10.22-20.77,20.24v1l-4.53,42.21,46.81,2.37,4.56-41.54A19.21,19.21,0,0,0,883.67,493.13Z" fill="#42637d"/><path d="M832.06,626.19c-21.89,0-35.87-55-40-73.86-.43-2-.75-3.54-1-4.63h0c-.22-1.07-.33-1.66-.33-1.66l23-7.84,25,52.45L859.64,577S866,626.19,832.06,626.19Z" fill="#ffb382"/><path d="M827.9,568a88.13,88.13,0,0,1,9.69,25.07" fill="none" stroke="#aa6243" stroke-miterlimit="10" stroke-width="3"/><path d="M781,539.79c.87,2,1.58,4.13,2.27,6.22,1,3.06,5.13,7.61,22-.38,23.22-11,7.27-17.28,7.27-17.28s5.23-10.48-.72-12.78l-4.53-1.73s7.7-5-.18-6C795.44,506.43,767.72,509.13,781,539.79Z" fill="#ffb382"/><path d="M1057.55,555.37l-39,15.79c-4.86-30.15-12.59-78.07-13.44-82.91-1.24-7.09-15.8-7.06-15.8-7.06-10.53,0-18.61,8-17.64,17.41l17.48,100.94c2.68,7.3,4.64,16.74,14.82,16.71,12.72,0,62.57-45.07,62.57-45.07Z" fill="#ffb382"/><line x1="1003.93" y1="583.93" x2="1020.38" y2="571.19" fill="none" stroke="#aa6243" stroke-miterlimit="10" stroke-width="3"/><path d="M964.15,496.64c1.62-11.57,14.38-22.73,26.9-18.93,11.71,3.55,19.5,11.6,20.15,21.63h0l4.29,42.24-46.84,3L964.32,503A18.68,18.68,0,0,1,964.15,496.64Z" fill="#42637d"/><path d="M1064.15,573.25s16.76,5.18,30.79-5.72c15.58-12.11,7.3-11.34,7.3-11.34s11.26-1.87,5.67-7.46c-3-3-7.44,1.56-13.42,2.9,0,0,15.62-3.28,6.9-5.75s-18.09,3.22-28.31,6.53c-5.23,1.69,12.34-13.13,3.46-13.53S1055.64,557,1049.41,560s-2.46,17.54-2.46,17.54Z" fill="#ffb382"/><path d="M956.59,917.31v17h79.71v-.48a10.78,10.78,0,0,0-.29-2.2,20.77,20.77,0,0,0-18.09-16.17l-25.44-2.8a4.1,4.1,0,0,0-4.06.39c-4.78,4.17-10,11-24.62,3.59C962.74,916.13,956.83,916.3,956.59,917.31Z" fill="#d6a061"/><rect x="956.59" y="934.35" width="79.71" height="13.06" fill="#d3e1f4"/><path d="M908.76,917.75l.63,16.6H829.68v-.48a10.78,10.78,0,0,1,.29-2.2,20.73,20.73,0,0,1,18.09-16.17l25.44-2.8a4.09,4.09,0,0,1,4,.39c4.79,4.17,10,11,24.63,3.59C903.24,916.13,913.28,916.18,908.76,917.75Z" fill="#d6a061"/><rect x="829.68" y="934.36" width="79.71" height="13.06" fill="#d3e1f4"/><path d="M1009.37,915.46l-56.22,8.09s-22.3-244.15-22.3-244.93l-9.7.51-3.44,95.06L915.39,838l-3.24,89.49-57.73-11,4.24-80.62L862,772.13l7.69-145.91-12.16-150.9,32.78-13.07V462l12.49-4.75,17.21.22h2.27l15.41-.19h.1l12.48,4.75h0l43.17,16.47C989.61,533.09,983,581.63,978.88,623Z" fill="#42637d"/><path d="M900.72,434.86v22.07l5.78,11.2a15.51,15.51,0,0,0,27.74-.41L939.4,457l-.25-23.66Z" fill="#ffb382"/><path d="M902.34,442.27l1.74,2.69a11.14,11.14,0,0,0,9.33,5.08h14.31a11.18,11.18,0,0,0,8.56-4l3-3.55Z" fill="#d26665"/><g id="ears-4"><path d="M955,399.2v-15h6c3.15,0,5.79,3.66,5.73,8.65-.08,7.28-2.58,9.64-5.73,9.64h-6.14C954.92,401.42,955,400.32,955,399.2Z" fill="#ffb382"/><path d="M954.82,389.47h3.27a3.68,3.68,0,0,1,3.38,3.9h0a3.68,3.68,0,0,1-3.38,3.89h-3.27Z" fill="#d26665"/><path d="M886.74,399.2v-15h-6c-3.15,0-5.79,3.66-5.73,8.65.08,7.28,2.58,9.64,5.73,9.64h6.14C886.79,401.42,886.74,400.32,886.74,399.2Z" fill="#ffb382"/><path d="M886.89,389.47h-3.27a3.66,3.66,0,0,0-3.38,3.9h0a3.67,3.67,0,0,0,3.38,3.89h3.27Z" fill="#d26665"/></g><path id="Face-4" d="M913.87,340.56h14c15.52,0,28.21,14.42,28.21,32.05v45.28c0,5.36-6.7,15.94-15,23.18a17.76,17.76,0,0,1-11.69,4.36l-17.1-.06A17.73,17.73,0,0,1,900.71,441c-8.27-7.23-15-17.78-15-23.12V372.61C885.67,355,898.36,340.56,913.87,340.56Z" fill="#ffb382"/><path id="nose-4" d="M921.73,410.72a16.94,16.94,0,0,0,5.42-.87c.62-.22,1.26.28,1,.75a7.73,7.73,0,0,1-12.75,0c-.3-.47.34-1,1-.75A16.86,16.86,0,0,0,921.73,410.72Z" fill="#d26665"/><g id="Eyes-4"><g id="Eye_L-4" data-name="Eye L-4"><path d="M939.37,396.39a4.89,4.89,0,0,0,5-4.76v-.24a5,5,0,0,0-10,0S934.15,396,939.37,396.39Z" fill="#f9fffc"/><path d="M936.93,391.37a1.43,1.43,0,0,0,.64-2.71,3.2,3.2,0,0,1,1.8-.54,3.25,3.25,0,1,1-3.25,3.25h0v-.25A1.54,1.54,0,0,0,936.93,391.37Z" fill="#20353f"/></g><g id="Eye_R-4" data-name="Eye R-4"><circle cx="902.34" cy="391.37" r="5.03" fill="#f9fffc"/><path d="M899.9,391.37a1.43,1.43,0,0,0,.64-2.71,3.2,3.2,0,0,1,1.8-.54,3.25,3.25,0,1,1-3.25,3.25h0v-.25A1.54,1.54,0,0,0,899.9,391.37Z" fill="#20353f"/></g></g><g id="Brows-4"><path d="M947.45,386.28a1.1,1.1,0,0,0,1.08-1.1,1.07,1.07,0,0,0-.59-1,16.13,16.13,0,0,0-2.89-1.19c-2.28-.42-10.68-.29-11-.28a1.08,1.08,0,0,0-1,1.18,1.1,1.1,0,0,0,1,1h0a96.19,96.19,0,0,1,10.6.25,15.31,15.31,0,0,1,2.32,1A1.13,1.13,0,0,0,947.45,386.28Z" fill="#743b2e"/><path d="M894.25,386.28a1.36,1.36,0,0,0,.49-.12,14.89,14.89,0,0,1,2.32-1,96.07,96.07,0,0,1,10.6-.25,1.09,1.09,0,0,0,.21-2.17h-.21c-.36,0-8.76-.14-11,.28a15.83,15.83,0,0,0-2.89,1.19,1.09,1.09,0,0,0-.48,1.46,1.11,1.11,0,0,0,1,.6Z" fill="#743b2e"/></g><path id="Hair-4" d="M886,388.21s-18.5-34.35,1.6-51.94c4.29-3.75,12.5-5.93,12.5-5.93,1.54-1.17,10.56-1.78,13.06-2.84,2.06-.87,11.89-.18,13.44-.34,6-.59,16.16,2.85,18.61,3,4.56.2,8.65,5.37,10.19,5.91,2.07.74,2.25,4.43,3.45,6.15,8.35,12-2.72,44.42-2.72,44.42-2.43-22.32-3.93-28.59-5.81-27-1.22,1.07,2.31,8.22-1.74,9-2.16.42-14.87-8.28-18.41-8.28-3,0,2,8.29-.36,7.89-3.26-.56-13.48-10-15.8-11-7.39-3.15-10.91-7.39-16.49-5.82-8.56,2.41-9.52,12.87-10.34,19.93C886.15,379.83,886,388.21,886,388.21Z" fill="#743b2e"/><path d="M937.42,415.38a23.27,23.27,0,0,1-1.69,5.89c-.22.49-.46,1-.71,1.44a18.86,18.86,0,0,1-5.25,6.19l-.3.22-.46.31-.24.16-.24.14c-.16.1-.32.2-.48.28s-.51.28-.77.4l-.17.08-.33.15c-.23.11-.46.2-.7.29l-.53.19-.53.16-.52.14a11.56,11.56,0,0,1-1.14.24c-.3,0-.61.09-.92.12h-.06a3.38,3.38,0,0,1-.45,0q-.4,0-.81,0h-1l-.46,0a3.86,3.86,0,0,1-.49-.06l-.45-.06h-.06a3.08,3.08,0,0,1-.66-.13c-.22-.05-.45-.1-.67-.17h0l-.7-.23c-.24-.08-.47-.16-.71-.26l-.31-.13-.31-.13h-.07a17.44,17.44,0,0,1-1.54-.82c-.25-.15-.49-.31-.74-.48h0c-.24-.16-.46-.33-.69-.5h0l-.21-.17h0l-.65-.55-.11-.1h0a17.25,17.25,0,0,1-2.41-2.64,18.17,18.17,0,0,1-1.58-2.47c-.08-.15-.16-.29-.23-.44a16.79,16.79,0,0,1-1-2.15v-.07a21.64,21.64,0,0,1-1.23-4.76c-.07-.46.35-.8.67-.54a7.42,7.42,0,0,0,1.64,1c3.57,1.78,8.52,1.59,14,1.59,6.36,0,12,.25,15.63-2.61C937.08,414.58,937.49,414.92,937.42,415.38Z" fill="#f8f8f8"/><path d="M936.75,414.84a51.83,51.83,0,0,1-2.91,6c-.68.37-1.38.7-2.09,1-6.93,2.73-15.19,1.56-21.49-.24h0l-1-.29-2.11-5.45a8.26,8.26,0,0,1-1.64-1c-.32-.26-.74.08-.67.54a21.93,21.93,0,0,0,1.23,4.76v.07a18.16,18.16,0,0,0,1,2.15c.07.15.15.29.23.44a19.49,19.49,0,0,0,1.58,2.47,18.24,18.24,0,0,0,2.41,2.64h0l.11.1.65.54h0l.22.19h0c.23.17.45.34.69.5h0c.25.17.49.33.74.48a16.13,16.13,0,0,0,1.54.82h.07l.31.13.31.13c.24.1.47.18.71.26l.7.23h0c.22.07.45.12.67.17s.44.1.66.13h.06l.45.06a3.86,3.86,0,0,0,.49.06l.46,0h1q.4,0,.81,0a3.38,3.38,0,0,0,.45,0h.06a5.51,5.51,0,0,0,.92-.12,11.56,11.56,0,0,0,1.14-.24l.52-.14.53-.16.53-.19c.24-.09.47-.18.7-.29l.33-.15.17-.08c.26-.12.51-.26.77-.4s.32-.18.48-.28l.24-.14.24-.16.46-.31.3-.22a18.86,18.86,0,0,0,5.25-6.19c.25-.47.49-.95.71-1.44a23.27,23.27,0,0,0,1.69-5.89C937.49,414.92,937.08,414.58,936.75,414.84Z" fill="#20353f"/><path d="M929.77,428.9l-.3.22-.46.31-.24.16-.24.14c-.16.1-.32.2-.48.28s-.51.28-.77.4l-.17.08-.33.15c-.23.11-.46.2-.7.29l-.53.19-.53.16-.52.14a11.56,11.56,0,0,1-1.14.24c-.3,0-.6.09-.92.12h-.51q-.4,0-.81,0h-1l-.46,0a3.86,3.86,0,0,1-.49-.06l-.45-.06h-.06a3.08,3.08,0,0,1-.66-.13c-.22-.05-.45-.1-.67-.17h0l-.7-.23c-.24-.08-.47-.16-.71-.26l-.31-.13-.31-.13h-.07a17.44,17.44,0,0,1-1.54-.82c-.25-.15-.49-.31-.74-.49h0c-.24-.16-.46-.32-.69-.5h0a19.86,19.86,0,0,1,11.07-1.24C925.62,428,927.86,428.45,929.77,428.9Z" fill="#c1272d"/><path d="M868.52,637.33a2.13,2.13,0,0,0,2.14,2.12h0l108.1-1a2.86,2.86,0,0,0,2.84-2.86c0-.13,0-.25,0-.37l-.79-12.86a1.75,1.75,0,0,0-1.78-1.64l-108.24.52a2.11,2.11,0,0,0-2.13,2.08Z" fill="#f88720"/><line x1="909" y1="629.59" x2="924.05" y2="629.59" fill="none" stroke="#af5127" stroke-miterlimit="10" stroke-width="3"/><rect x="912.22" y="619.9" width="29.74" height="20.83" rx="5.22" ry="5.22" fill="none" stroke="#af5127" stroke-miterlimit="10" stroke-width="3"/><line x1="986.04" y1="544.62" x2="986.04" y2="521.91" fill="none" stroke="#1e3744" stroke-miterlimit="10" stroke-width="3"/><line x1="863.33" y1="549.54" x2="863.33" y2="526.84" fill="none" stroke="#1e3744" stroke-miterlimit="10" stroke-width="3"/><path d="M871.81,780.75s16.89,22,33.78,0" fill="none" stroke="#1e3744" stroke-miterlimit="10" stroke-width="3"/><path d="M951.72,783.3s19.95,19.23,33.41-5" fill="none" stroke="#1e3744" stroke-miterlimit="10" stroke-width="3"/><polygon points="896.05 645.5 896.05 616.25 886.67 616.25 885.54 645.5 896.05 645.5" fill="#2b5168"/><polygon points="980.18 642.25 976.1 616.11 962.41 616.34 968.16 643.34 980.18 642.25" fill="#2b5168"/><path d="M1006.52,711.8a7,7,0,0,1-6.55,7.42h-.17l-31.17,2-5.34.34a7.25,7.25,0,0,1-7.77-6.5l-5-66.53-.19-2.58a6.72,6.72,0,0,1,2-5.32,7.27,7.27,0,0,1,4.73-2.11l4.46-.29,2-.12,27.64-1.79,2.43-.16a5.62,5.62,0,0,1,1.16,0,7.34,7.34,0,0,1,5.78,3.71h0a6.75,6.75,0,0,1,.81,2.75l1.13,15Z" fill="#f88720"/><path d="M1002.48,657.74l-4.21,10.61A10.33,10.33,0,0,1,981,671.41l-23-24.2-.12-2.6a6.79,6.79,0,0,1,2.14-5.26,7.9,7.9,0,0,1,1.51-1.1l2-.12,27.64-1.78,3.59-.14a7.34,7.34,0,0,1,5.78,3.71h0a6.75,6.75,0,0,1,.81,2.75Z" fill="none" stroke="#af5127" stroke-miterlimit="10" stroke-width="3"/><path d="M968.63,721.25l-5.34.34a7.25,7.25,0,0,1-7.77-6.5l-5-66.53-.19-4.19a6.64,6.64,0,0,1,2-5.32,7.25,7.25,0,0,1,4.73-2.11l6.44-.42Z" fill="#d0550c"/><circle cx="988.58" cy="664.97" r="4.74" fill="none" stroke="#af5127" stroke-miterlimit="10" stroke-width="3"/><path d="M930.68,570l8.53-28.26a.92.92,0,0,1,1.12-.66c2.31.67,8.85,1.72,12.71-6.05,3.16-6.38-2.32-12.88-3.77-16.19a.89.89,0,0,0-1.7.28c-.71,4.12-1.6,16-9.2,13.42-5.47-1.88-3.78-11.91-1.11-16.31a.91.91,0,0,0-.19-1.26.86.86,0,0,0-1-.07c-3.53,2-9.34,5.07-9.28,10.6a13.92,13.92,0,0,0,7.6,12.48.93.93,0,0,1,.41,1.14l-10.05,29.78" fill="none" stroke="#1e3744" stroke-miterlimit="10" stroke-width="3"/><path d="M804.3,533.26a32.06,32.06,0,0,0,8.25-4.91" fill="none" stroke="#aa6243" stroke-miterlimit="10" stroke-width="3"/><path d="M797.67,516.54s2.72-.19,9.63-2.7" fill="none" stroke="#aa6243" stroke-miterlimit="10" stroke-width="3"/><path d="M1102.92,556.19s-13.21,5.09-15.43,5.74" fill="none" stroke="#aa6243" stroke-miterlimit="10" stroke-width="3"/><path d="M1103.54,548.45s-7.85,4.35-10.46,5.14a56.5,56.5,0,0,1-5.59,1.28" fill="none" stroke="#aa6243" stroke-miterlimit="10" stroke-width="3"/><path d="M918.26,559.46c1.39-3.49-11.35-38.42-13.74-48.59-.85-3.6-6.31,2.69-6.31,2.69l14.25,48.37,7.6-3.24" fill="#e6e6e6"/><path d="M899.82,509.13l.46-.11a7.6,7.6,0,0,1,9.15,5l4.72,17.11a7,7,0,0,1-5.19,8.43l-.22.05-.46.11a7.61,7.61,0,0,1-9.15-5l-4.76-17.11a7,7,0,0,1,5.19-8.43Z" fill="#f88720"/><path d="M907.79,543l5-1.33a2.84,2.84,0,0,0,2.14-3.38l0-.14V538a3.12,3.12,0,0,0-3.8-2l-5,1.33a2.85,2.85,0,0,0-2.16,3.39s0,.08,0,.13l.06.17A3.13,3.13,0,0,0,907.79,543Z" fill="#c97027"/><polygon points="885.54 547.36 887.79 592.92 954.53 594.49 957.88 546.03 885.54 547.36" fill="#2b5168"/><path d="M560.21,482.48s-15.32-.45-16.6,6.63S526.4,596.63,526.4,596.63c-.6,6.52,5.37,14.81,17.36,15h0c7.62.91,14.8-3.93,16-10.79l18-100.85c1-9.42-7-17.43-17.55-17.5h0" fill="#efb5af"/><path d="M585.35,492.72c-1.56-11.59-13.33-19.59-26.3-17.82-11.5,1.55-20.07,10.23-20.77,20.23h0l-4.53,42.21,46.83,3.31,4.57-41.52A19.17,19.17,0,0,0,585.35,492.72Z" fill="#d3e1f4"/><path d="M540.39,590.23l-14-44.29-27.72,3.44s8.66,76.39,35.09,76.39c34,0,27.57-49.18,27.57-49.18Z" fill="#efb5af"/><path d="M509,480.44c-4.42,6.32-2.22,16-1.59,18.4-4.25.62-14,.82-18.13,5.36-5.42,6,.67,15.5.67,15.5s-3.18,6.86-.2,10.94c0,0,1.95,10.45,6.49,11.44l.8,4.75-.54,22.5,37.25-10.82-8.47-16.72s10.18-3.29,5.29-23.78-5.49-30.55-4.47-35.72S514.23,472.94,509,480.44Z" fill="#f6851e"/><path d="M504.78,515.44s11.83-6.54,18.17,2.06c4.75,6.45-2,10.55-2,10.55" fill="none" stroke="#af5127" stroke-miterlimit="10" stroke-width="3"/><path d="M505.21,528.44s12.93-5.19,16.65.59.22,9.31-2.42,9.92-6.91-1.65-6.91-1.65" fill="none" stroke="#af5127" stroke-miterlimit="10" stroke-width="3"/><path d="M507.3,499.62s12.86-3.13,14.78,4.69c1,4-.27,6.57-2.64,9.49" fill="none" stroke="#af5127" stroke-miterlimit="10" stroke-width="3"/><path d="M531.33,561.64s4.81,16.58,7.94,31" fill="none" stroke="#aa6243" stroke-miterlimit="10" stroke-width="3"/><path d="M658.27,916.13v17.8H738v-.48a10.78,10.78,0,0,0-.29-2.2,20.77,20.77,0,0,0-18.09-16.12l-25.45-2.85a4.1,4.1,0,0,0-4.06.39c-4.78,4.17-10,11-24.62,3.59C664.42,915.73,658.5,915.13,658.27,916.13Z" fill="#ddaa7c"/><rect x="658.27" y="933.93" width="79.71" height="12.33" fill="#bf8a5e"/><path d="M691,480.78s14.56,0,15.8,7.06S724.2,595.13,724.2,595.13c.57,6.52-5.45,14.78-17.44,14.89h0c-7.63.86-14.78-4-16-10.89l-17.4-100.94c-1-9.43,7.12-17.4,17.65-17.4h0" fill="#efb5af"/><path d="M665.82,496.22c1.62-11.57,14.38-22.73,26.9-18.93,11.71,3.55,19.5,11.6,20.15,21.63h0l4.28,42.21-46.85,3L666,502.57A18.56,18.56,0,0,1,665.82,496.22Z" fill="#d3e1f4"/><path d="M639.15,456.86l-17.67.23-17.21-.23-45.25,18s6.83,91.92,14.13,150.67c1.15,9.38,37.67-2.9,37.67-2.9h69.6c4.13-41.4,10.73-90,14.54-144.5Z" fill="#d3e1f4"/><path d="M712,914.24,681.15,614.8H571.83l-.75,59L555.94,916.07l57.73,11L627,674h6.85c0,.77,20.83,249.14,20.83,249.14Z" fill="#42637d"/><path d="M641.08,456.51l-14.3,29.74a5,5,0,0,1-8.91.14L602.4,456.51V434.45l27.89-1.14,10.51-.43V435l.12,9.47Z" fill="#efb5af"/><g id="Face_02-4" data-name="Face 02-4"><path d="M640.94,444.47c-3.82,2.47-38.54,7.2-38.54,7.2V434.45l27.89-1.14L640.82,435Z" fill="#d26665"/><g id="ears-5"><path d="M657.61,396.3l-1.08-14.95,6-.43c3.14-.22,6,3.23,6.34,8.22.43,7.26-1.89,9.8-5,10l-6.12.44C657.72,398.51,657.69,397.41,657.61,396.3Z" fill="#f3a396"/><path d="M656.76,386.6l3.26-.23a3.67,3.67,0,0,1,3.65,3.64h0a3.68,3.68,0,0,1-3.09,4.12l-3.26.24Z" fill="#d26665"/><path d="M589.55,401.19l-1.07-14.94-6,.43c-3.15.22-5.52,4.06-5.1,9,.6,7.26,3.26,9.44,6.41,9.21l6.12-.44C589.76,403.4,589.63,402.3,589.55,401.19Z" fill="#f3a396"/><path d="M589,391.48l-3.25.23a3.66,3.66,0,0,0-3.1,4.12h0a3.67,3.67,0,0,0,3.65,3.64l3.26-.23Z" fill="#d26665"/></g><path id="Face-5" d="M612.41,340.75l13.93-1c15.47-1.12,29.16,12.36,30.43,29.95L660,414.86c.38,5.35-2.29,16.38-10,24.19a17.73,17.73,0,0,1-11.34,5.19l-17.07,1.17a17.79,17.79,0,0,1-11.85-3.52c-8.77-6.62-19.52-16.65-19.91-22l-3.24-45.17C585.31,357.13,596.94,341.86,612.41,340.75Z" fill="#efb5af"/><path id="nose-5" d="M633.15,412.31a31.81,31.81,0,0,0,7.41-1.41c.85-.28,1.76.16,1.38.66-1.4,1.83-4.65,3.7-8.56,4s-7.39-1.1-9-2.72c-.45-.44.39-1,1.27-.84A31.36,31.36,0,0,0,633.15,412.31Z" fill="#d26665"/><g id="Brows-5"><path d="M655.53,383.94a1.09,1.09,0,0,0,.35-2.09h0a16,16,0,0,0-3-1c-2.3-.26-10.67.48-11,.51a1.07,1.07,0,0,0-1,1.13v.05a1.09,1.09,0,0,0,1.16,1h0a98.23,98.23,0,0,1,10.58-.51,16.06,16.06,0,0,1,2.39.82A1,1,0,0,0,655.53,383.94Z" fill="#f9d478"/><path d="M602.47,387.76a1.34,1.34,0,0,0,.48-.15,14.4,14.4,0,0,1,2.24-1.16,97.81,97.81,0,0,1,10.55-1,1.1,1.1,0,0,0,1-1.15,1.08,1.08,0,0,0-1.14-1c-.36,0-8.75.48-11,1.07a15.22,15.22,0,0,0-2.8,1.39,1.07,1.07,0,0,0-.39,1.47v0A1.07,1.07,0,0,0,602.47,387.76Z" fill="#f9d478"/></g><path id="Hair-5" d="M588,390.28s-20.9-32.93-2.12-51.92c4-4,12-6.81,12-6.81,1.46-1.27,4.22-1.41,4.72-3.09,1.32-4.48,5.68.56,8.11-.68,2-1,14.87-11.31,16.16-13.16.93-1.33.31,5.52,1.85,5.25,5.9-1,20.77-11.08,21.16-8.8.27,1.62-3.64,11.57-1.19,11.5,4.56-.12,16.77-3.58,17.37-3.12.76.57-2.21,11.34-3.36,12.49-3.82,3.84-7.27,4.48-6,6.11,9.2,11.41,1.06,45.6,1.06,45.6-4-22.09-4.49-29.68-11-33.77-3.24-2.05.3,2.72-1.45,4.49-1.14,1.16,6.25,5,2.27,6.1-2.12.57-14.11-1.38-17.65-1.13-2.94.21,3.71,2.58,1.37,2.35-3.29-.33-15.31-3.43-17.7-4.25-7.59-2.62-11.41-6.59-16.86-4.63-8.37,3-8.58,13.52-8.89,20.62C587.58,381.92,588,390.28,588,390.28Z" fill="#f9d478"/><path id="Mouth-4" d="M633.33,424c6.35-.45,11.93-1.78,15.38-4,.32-.21.75,0,.71.32-.92,6.57-7.32,12-15.45,12.54s-15.24-3.83-17.08-10.2c-.1-.31.3-.58.64-.42C621.27,424,627,424.46,633.33,424Z" fill="#f8f8f8"/></g><path d="M610.52,930.54v8.89H559.58v-8.89a19.75,19.75,0,0,1,19.75-19.75h11.44a19.75,19.75,0,0,1,19.75,19.75Z" fill="#ddaa7c"/><rect x="559.58" y="934.61" width="50.94" height="11.65" fill="#bf8a5e"/><path d="M570.23,644.59a2.13,2.13,0,0,0,2.14,2.12h0l109.39-1a2.84,2.84,0,0,0,2.87-2.81,2.75,2.75,0,0,0,0-.41l-.8-12.86a1.77,1.77,0,0,0-1.8-1.65l-109.54.52a2.11,2.11,0,0,0-2.15,2.08Z" fill="#d6a061"/><line x1="609.87" y1="637.3" x2="624.92" y2="637.3" fill="none" stroke="#1e3744" stroke-miterlimit="10" stroke-width="3"/><rect x="613.09" y="627.61" width="29.74" height="20.83" rx="5.22" ry="5.22" fill="none" stroke="#1e3744" stroke-miterlimit="10" stroke-width="3"/><line x1="687.72" y1="544.19" x2="687.72" y2="521.49" fill="none" stroke="#4e7687" stroke-miterlimit="10" stroke-width="3"/><path d="M705.69,584.45l-3.61-.94L646.5,569l-5.45,18.87s51.43,31.49,68.49,33,16.06-23.46,13.29-33.94C720.22,577,705.69,584.45,705.69,584.45Z" fill="#efb5af"/><line x1="689.63" y1="581.71" x2="707.92" y2="591.64" fill="none" stroke="#aa6243" stroke-miterlimit="10" stroke-width="3"/><path d="M678.58,576.2c-.27-2-.54-13.15-1.1-16.23-2.22-12.16-18.16-17.17-17.1-13.84.78,2.43,4.79,10.78,4.86,12.89-5.18-1.64-10.39-4-10.55-7-.32-6,1.46-8.61-3.08-7.59,0,0-11.37,3.11-11.28,11.77,0,2.59-.25,4,0,4.71-.8-.55-2.17-.61-4,2.64-3,5.34-5,10.39-2.89,12.73.69.75,1.12,1.18,1.38,1.41-1.07-.33-4.23-1-4.5,3.08-.32,4.86-1.13,8.4,3.23,10.33s21.11,6.95,21.11,6.95l21.44,15.44s14.87-24.73,15.31-36.16Z" fill="#f88720"/><path d="M640.31,560.34s1.17,3.83,8.87,7.65" fill="none" stroke="#af5127" stroke-miterlimit="10" stroke-width="3"/><path d="M633.42,577a41.71,41.71,0,0,0,7.7,3.64" fill="none" stroke="#af5127" stroke-miterlimit="10" stroke-width="3"/><rect x="585" y="625.77" width="9.37" height="27.1" fill="#2b5168"/><polygon points="658.84 625.76 658.37 652.01 669.34 650.75 667.36 625.76 658.84 625.76" fill="#2b5168"/><g id="Eyes-5"><g id="Eye_L-5" data-name="Eye L-5"><circle cx="648.31" cy="391.48" r="5.03" transform="translate(-26.39 47.47) rotate(-4.11)" fill="#f9fffc"/><path d="M645.9,391.62a1.43,1.43,0,0,0,1.32-1.53,1.41,1.41,0,0,0-.88-1.22,3.27,3.27,0,1,1-1.25,2.81,1,1,0,0,1,0-.25A1.49,1.49,0,0,0,645.9,391.62Z" fill="#20353f"/></g><g id="Eye_R-5" data-name="Eye R-5"><circle cx="611.37" cy="394.12" r="5.03" transform="translate(-26.68 44.83) rotate(-4.11)" fill="#f9fffc"/><path d="M609,394.28a1.44,1.44,0,0,0,1.33-1.52,1.41,1.41,0,0,0-.88-1.23,3.25,3.25,0,1,1-.6,4.55,3.16,3.16,0,0,1-.66-1.74v-.21A1.51,1.51,0,0,0,609,394.28Z" fill="#20353f"/></g></g><path d="M656.43,787.9s16.89,22,33.77,0" fill="none" stroke="#1e3744" stroke-miterlimit="10" stroke-width="3"/><path d="M576.09,787.9s16.89,22,33.78,0" fill="none" stroke="#1e3744" stroke-miterlimit="10" stroke-width="3"/><polyline points="589.37 468.67 601.11 499.4 610.78 485.3 614.09 487.83" fill="none" stroke="#4e7687" stroke-miterlimit="10" stroke-width="3"/><polyline points="633.49 485.96 640.76 497.37 653.97 468.67" fill="none" stroke="#4e7687" stroke-miterlimit="10" stroke-width="3"/><line x1="564.45" y1="540.66" x2="570.23" y2="518.76" fill="none" stroke="#4e7687" stroke-miterlimit="10" stroke-width="3"/></g></g></g></svg>