<svg xmlns="http://www.w3.org/2000/svg" viewBox="0 0 358.47 741.91"><defs><style>.cls-1,.cls-6{fill:#d3e1f4;}.cls-2{fill:#6579b8;}.cls-3{fill:#2b5168;}.cls-11,.cls-4{fill:none;stroke-miterlimit:10;stroke-width:3px;}.cls-4{stroke:#1e3744;}.cls-5{fill:#ffb382;}.cls-6{stroke:#1e2842;stroke-linecap:round;stroke-linejoin:round;stroke-width:2px;}.cls-7{fill:#b6c6d8;}.cls-8{fill:#1e3744;}.cls-9{fill:#d0550c;}.cls-10{fill:#f88720;}.cls-11{stroke:#aa6243;}.cls-12{fill:#77463d;}.cls-13{fill:#42637d;}.cls-14{fill:#d26665;}.cls-15{fill:#f9fffc;}.cls-16{fill:#111;}.cls-17{fill:#f8f8f8;}.cls-18{fill:#445c87;}.cls-19{fill:#b26016;}</style></defs><title>Строители</title><g id="_5" data-name="5"><path class="cls-1" d="M178.47,662.92V680.7H98.76v-.49a11,11,0,0,1,.29-2.2,20.76,20.76,0,0,1,18.09-16.16l25.44-2.8a4.13,4.13,0,0,1,4.06.38c4.78,4.18,10,11,24.63,3.6C172.32,662.49,178.24,661.91,178.47,662.92Z"/><rect class="cls-2" x="98.76" y="680.7" width="79.71" height="12.33" transform="translate(277.24 1373.72) rotate(-180)"/><path class="cls-3" d="M124.76,661l30.79-299.45H264.91l.75,59,15.14,242.3-57.73,11L209.74,420.75h-6.85c0,.78-20.83,249.14-20.83,249.14Z"/><path class="cls-4" d="M175.18,535.11s-15.13,11.08-28.07-6"/><path class="cls-4" d="M259,531s-11.24,15-28.59,2.48"/><path class="cls-5" d="M77.09,283.26,61,294.58s25.28,59.68,37.61,71.57S129.52,354.4,125.4,345C121.45,336.07,77.09,283.26,77.09,283.26Z"/><path class="cls-5" d="M149.78,236.12s12.88,6.79,10.65,13.64-35,102.89-35,102.89c-2.56,6-11.75,10.49-22.39,5h0c-7.14-2.81-11.17-10.47-9-17.1l32-97.31c3.57-8.78,14.44-12,23.74-7.08h0"/><path class="cls-1" d="M173.12,250.59c3-11.28-4.35-26.55-17.36-28-12.16-1.31-22.48,3.05-27,12h0l-20.46,37.19L150.21,293l20.24-36.56A19.17,19.17,0,0,0,173.12,250.59Z"/><path class="cls-6" d="M51.45,218.81c-2.17-.9-26.88-40-26.88-40l34.78,36.11Z"/><path class="cls-7" d="M51.33,221.45c-.13.06-4.88-4.93-4.88-4.93l9.33-7.66,5.6,6Z"/><path class="cls-8" d="M59.48,235s-7.78,1.89-11.78.64-2.51,6.91,4.08,5.62c3.43-.67,9.37-1.27,9.37-1.27Z"/><path class="cls-9" d="M19.59,278.77s10,12.92,17.88,21.06c.15.15,2.53-1.81,6.19-5C57,283.3,87.19,255.67,87.17,255.35,87,254.85,65,236.86,65,236.86l-38.59,35.6Z"/><path class="cls-5" d="M53.12,247.34A32.82,32.82,0,0,1,65,258.78c1.73,2.85,2.36,4.43,2.55,6.53.44,5.12-11,2.65-11,2.65s4.52,6-.29,6.49-12.13-5.65-12.13-5.65,11.42,7.07,10.21,8.85-10,2.71-11.54-.1-8.35-8-8.48-11.13,3.86-5.14,3.86-5.14S42.51,254,45.07,254c0,0,6-6.92,8-6.66Z"/><path class="cls-8" d="M19.59,278.77s10,12.92,17.88,21.06c.15.15,2.53-1.81,6.19-5L26.44,272.46Z"/><path class="cls-8" d="M56.31,238.88c-.14-.33-1.59-8.34-5.08-12.51s-1.68-6.81-1.68-6.81l9.72-8.18s9.34,7.51,12.36,9.12A8.2,8.2,0,0,1,75.49,225Z"/><path class="cls-10" d="M91.41,245l1-2.32S78,224.8,73.66,222.35l-19.93,9.7,3.92,11.71,16.68,16.41Z"/><path class="cls-8" d="M96.05,253.55s-3.73-7.16-4.33-8.09S73.6,260.24,73.6,260.24l9.35,6Z"/><path class="cls-5" d="M64.08,276.64s3.92-9.31,8.07-12c0,0-8.91-12.83-5.67-15.34s11.13,7.45,12.37,10.85,3.3,12.94.68,16.53,13.39,28.13,13.39,28.13l-28.82-4s-8.42-13.7-10.78-14.9S64.08,276.64,64.08,276.64Z"/><path class="cls-11" d="M50,272.78s-2-.58-6.81-6.15"/><path class="cls-11" d="M57.43,268.39s-6.53-4.87-9.24-8.91"/><path class="cls-11" d="M102.64,314.36s8.21,10.5,9.26,19.89"/><path class="cls-12" d="M258.64,107.78s-5.7,45.08-8,49.8-3.82,4.76-3.82,4.76L248.93,125l4.17-18.75Z"/><path class="cls-5" d="M259.57,376.49l20.33,10.39s46.26-25.1,56.13-39.1-14.16-34-22.78-28.46C305,324.59,259.57,376.49,259.57,376.49Z"/><path class="cls-5" d="M275.82,231.57s14-3.91,17.11,2.6S338.22,333,338.22,333c2.29,6.14-1.32,15.7-12.85,19h0c-7.12,2.86-15.31.07-18.28-6.24L263.44,253c-3.44-8.84,2.22-18.66,12.38-21.47h0"/><path class="cls-1" d="M249.37,247.44c-2.25-11.46,6.33-22.79,19.17-25.32,11.39-2.23,22.29,3.23,26.18,12.49h0l17.85,38.51L269.32,291.3l-17.68-37.87A19.41,19.41,0,0,1,249.37,247.44Z"/><path class="cls-1" d="M277.69,221.67s-3.38,45.6-7.91,93.09c-1.9,19.92-118.47,9-121.26-16.65-2.49-23-4.91-47.43-6.71-73.21l10.4-4,11.62-4.42,33.73-12.88,17.68.23,17.2-.23,27,10.75h0l.08,0,.13.05.37.15.23.09.58.23,1.06.42.81.32.87.35.89.36,1.79.71.43.17.82.33.75.3.65.26.92.36h0Z"/><path class="cls-3" d="M269.78,314.76c-1.9,19.92-4,40.17-6.16,57.54a.93.93,0,0,1-.05.24L156.34,369.4c-2.17-21.83-5-45.66-7.82-71.29A.78.78,0,0,1,149,298c5.05.86,3.7-59,3.18-77.08L167.83,215c.86,16.15-.23,56.71,3.28,59.6,12.79,10.53,71.15,3.12,76.07,3.12,12.79,0,12.28-62.46,12.22-63.31h0l.08,0,.13.05.37.15.23.09.58.23,1.06.42.81.32.87.35.89.36,1.79.71.43.17.82.33.75.3.65.26.92.36h0c1.6,1-1.4,45-3.29,73.69S269.78,314.76,269.78,314.76Z"/><polygon class="cls-13" points="239.51 307.06 238.18 352.01 180.21 352.01 179.98 307.06 239.51 307.06"/><path class="cls-5" d="M195.67,204.14,210,233.89a5,5,0,0,0,8.91.13l15.47-29.88V182.08L206.45,181l-10.51-.43,0,2.12-.12,9.46Z"/><g id="Face_02"><path class="cls-14" d="M195.8,190.37c3.82,2.46,38.54,7.2,38.54,7.2V180.34l-27.89-1.13-10.53,1.69Z"/><g id="ears"><path class="cls-5" d="M179.13,142.19l1.08-14.94-6-.43c-3.15-.23-6,3.23-6.34,8.22-.44,7.26,1.88,9.8,5,10l6.12.44C179,144.41,179.05,143.31,179.13,142.19Z"/><path class="cls-14" d="M180,132.5l-3.26-.23a3.67,3.67,0,0,0-3.65,3.64h0a3.67,3.67,0,0,0,3.09,4.12l3.26.23Z"/><path class="cls-5" d="M247.19,147.09l1.07-15,6,.43c3.14.23,5.51,4.07,5.1,9-.61,7.26-3.27,9.43-6.42,9.21l-6.11-.44C247,149.3,247.11,148.2,247.19,147.09Z"/><path class="cls-14" d="M247.74,137.37l3.26.24a3.67,3.67,0,0,1,3.09,4.12h0a3.68,3.68,0,0,1-3.65,3.64l-3.26-.23Z"/></g><path id="Face" class="cls-5" d="M224.33,86.65l-13.92-1c-15.48-1.11-29.17,12.37-30.44,30l-3.24,45.17c-.39,5.35,2.28,16.38,10,24.19a17.65,17.65,0,0,0,11.34,5.18l17.07,1.18A17.66,17.66,0,0,0,227,187.78c8.78-6.61,19.52-16.64,19.91-22l3.24-45.16C251.43,103.06,239.8,87.76,224.33,86.65Z"/><path id="nose" class="cls-14" d="M203.57,158.21a31.17,31.17,0,0,1-7.41-1.41c-.85-.28-1.76.15-1.38.65,1.4,1.84,4.65,3.71,8.56,4s7.39-1.1,9-2.72c.44-.44-.4-1-1.28-.85A31,31,0,0,1,203.57,158.21Z"/><g id="Eyes"><g id="Eye_L"><circle class="cls-15" cx="188.91" cy="135.5" r="5.03" transform="translate(40.21 314.2) rotate(-85.89)"/><path class="cls-16" d="M191.34,135.67a1.43,1.43,0,0,1-.45-2.75,3.25,3.25,0,1,0,1.26,2.81v-.25A1.41,1.41,0,0,1,191.34,135.67Z"/></g><g id="Eye_R"><circle class="cls-15" cx="225.84" cy="138.15" r="5.03" transform="translate(71.85 353.51) rotate(-85.89)"/><path class="cls-16" d="M228.27,138.33a1.43,1.43,0,0,1-.44-2.75,3.26,3.26,0,1,0,1.25,2.81,2.18,2.18,0,0,0,0-.25A1.43,1.43,0,0,1,228.27,138.33Z"/></g></g><g id="Brows"><path class="cls-12" d="M181.21,129.84a1.09,1.09,0,0,1-.34-2.09,16.7,16.7,0,0,1,3-1c2.3-.26,10.67.47,11,.51a1.08,1.08,0,0,1-.18,2.16h0a98.67,98.67,0,0,0-10.59-.51,15.76,15.76,0,0,0-2.39.82A1.06,1.06,0,0,1,181.21,129.84Z"/><path class="cls-12" d="M234.27,133.66a1.18,1.18,0,0,1-.47-.15,16.93,16.93,0,0,0-2.25-1.16,100.13,100.13,0,0,0-10.55-1,1.09,1.09,0,1,1,.12-2.17c.35,0,8.75.49,11,1.08a15.54,15.54,0,0,1,2.8,1.39,1.09,1.09,0,0,1,.39,1.49A1.13,1.13,0,0,1,234.27,133.66Z"/></g><path id="Hair" class="cls-12" d="M248.76,136.17s22.68-32.5,5.34-52.81c-8.67-10.16-37-19.57-58.43-10.16C193.62,74.1,181,82.14,180,84c-8.2,14.07-1.06,45.59-1.06,45.59,4-22.08,4.49-29.67,11-33.77,3.23-2,13.28,9.47,16.82,9.47,10.55,0,14-1.09,16.33-1.91,7.6-2.61,11.42-6.58,16.86-4.62,8.38,3,8.58,13.52,8.9,20.62C249.16,127.81,248.76,136.17,248.76,136.17Z"/><path id="Mouth" class="cls-17" d="M203.41,169.9c-6.35-.46-11.93-1.78-15.38-4-.32-.2-.75,0-.7.33.91,6.56,7.32,11.95,15.44,12.54s15.24-3.84,17.09-10.2c.09-.32-.31-.58-.65-.42C215.47,169.85,209.76,170.36,203.41,169.9Z"/></g><path class="cls-9" d="M266.51,391.36a2.13,2.13,0,0,1-2.18,2.12l-109.4-1a2.86,2.86,0,0,1-2.85-3.23l.8-12.86a1.77,1.77,0,0,1,1.8-1.64l109.54.52a2.13,2.13,0,0,1,2.15,2.08Z"/><path class="cls-18" d="M194.69,390.12V378.58a4.64,4.64,0,0,1,4.65-4.64h18.31a4.63,4.63,0,0,1,4.64,4.64v11.54a4.64,4.64,0,0,1-4.64,4.64s-19.38.92-21.53,0S194.69,390.12,194.69,390.12Z"/><path class="cls-10" d="M188,389.92v16.41c0,.67-.88,1.21-2,1.21H159.85c-1.08,0-2-.54-2-1.21V389.92c0-.67.88-1.21,2-1.21h26.22C187.15,388.71,188,389.25,188,389.92Z"/><polygon class="cls-9" points="177.9 372.54 178.37 398.79 167.4 397.51 169.38 372.54 177.9 372.54"/><path class="cls-12" d="M204.19,163.7s-2.61,6.53,2.74,8,24.13,2.5,27.91-5.86c0,0-11.42.64-15-.92S206.93,156.4,204.19,163.7Z"/><path class="cls-12" d="M203.6,163s2.12,6.52-2.23,8-19.65,2.51-22.73-5.85c0,0,9.3.64,12.19-.93S201.37,155.67,203.6,163Z"/><path class="cls-10" d="M267.48,115c-6.16-7.06-11.72-9.18-21.09-10.8-24.9-4.3-52.06-11.29-76.11-3.77A72.41,72.41,0,0,1,177.76,75c4.22-8.76,12.17-16.42,22.05-17.82a8.46,8.46,0,0,0,3.47-.91c1.54-1,2-2.93,3-4.42,2.38-3.52,8.35-3.94,11.25-.81.89,1,1.53,2.17,2.68,2.8a7.68,7.68,0,0,0,3.94.5C235.54,54,246.53,59.69,254,68s7,18.55,9.13,29.37a23,23,0,0,0,1.66,6c1,2,2.61,3.63,3.48,5.65s1.19,4.85-.76,6Z"/><path class="cls-19" d="M217.85,56a68.92,68.92,0,0,0-15.14,26.44,66.74,66.74,0,0,0-2,8.47c-.15.94-1.62.54-1.46-.39a69.43,69.43,0,0,1,11.91-28.65,71.44,71.44,0,0,1,5.6-6.92c.66-.71,1.73.34,1.08,1Z"/><path class="cls-19" d="M201.92,60.24A74.11,74.11,0,0,0,189.06,84.5a72.53,72.53,0,0,0-1.91,7.55c-.18.93-1.65.54-1.46-.4a75.17,75.17,0,0,1,15.16-32.46c.6-.76,1.67.3,1.07,1.05Z"/><path class="cls-19" d="M251.27,105.38c.92-11.19,1.81-24.07-6.14-33.25-1.73-2-3.93-4-6.55-4.76-2.81-.81-5.33.52-7.47,2.23a28.38,28.38,0,0,0-8.21,11.53,83.51,83.51,0,0,0-4.26,15.92c-.18.94-1.65.55-1.47-.39,1.88-9.74,4.21-20.63,12.15-27.51,2.08-1.8,4.61-3.56,7.5-3.54s5.57,1.77,7.65,3.68A27.84,27.84,0,0,1,252.3,83.5c1.69,7.18,1.09,14.61.49,21.88-.08,1-1.6,1-1.52,0Z"/><path class="cls-19" d="M272.92,117.68c-7.87,1.06-7.93,5.37-15.88,4.87-1.54-4.33-2.34-6.69-4.19-8.34s-4.41-2.32-6.88-2.91c-23.88-5.71-43.78-7.31-68.34-6.15v14.23c-9.56-2.59-22.26-5.94-30.26-11.55-2.41-1.7-4.88-3.75-5.44-6.53-1.08-5.32,5.16-9.2,10.65-10.75,14.83-4.18,30.8-3.12,46.13-.72,24.38,3.83,59.11,9.66,75.66,22.17a3.18,3.18,0,0,1-1.45,5.68Z"/><path class="cls-5" d="M279.79,354.87s-11.73,15.48-14.9,15.36-6.77-4.23-13.8-3.78-15.28,6-16.49,9.21,2.17,5.18,2.17,5.18l1.77,0s-4.77,1.69-3.89,5.78,6.17,3.77,9.85,1.37c0,0-7,4.89-3.61,6.84s5.26-4.53,13.12-4.09,13.22,3.58,16.87,2S289,379.8,289,379.8Z"/><path class="cls-11" d="M255,382.92s-9.35,3.44-11.7,5.79"/><path class="cls-11" d="M249.84,375.51s-9.36,3.43-11.7,5.78"/><path class="cls-1" d="M226.22,677.3v8.9h50.94v-8.9a19.74,19.74,0,0,0-19.75-19.74H246A19.74,19.74,0,0,0,226.22,677.3Z"/><rect class="cls-2" x="226.22" y="681.37" width="50.94" height="11.65"/></g></svg>