<svg id="_3" data-name="3" xmlns="http://www.w3.org/2000/svg" viewBox="0 0 358.47 741.91"><defs><style>.cls-1{fill:#77463d;}.cls-2{fill:#d6a061;}.cls-3{fill:#d3e1f4;}.cls-4{fill:#2b5168;}.cls-5{fill:#f2b197;}.cls-6{fill:#d26665;}.cls-7{fill:#f3a396;}.cls-8{fill:#f9fffc;}.cls-9{fill:#20353f;}.cls-10{fill:#965e56;}.cls-11{fill:#f8f8f8;}.cls-12,.cls-13,.cls-16,.cls-17{fill:none;stroke-miterlimit:10;stroke-width:3px;}.cls-12{stroke:#1e3744;}.cls-13{stroke:#aa6243;}.cls-14{fill:#f88720;}.cls-15{fill:#d0550c;}.cls-16{stroke:#af5127;}.cls-17{stroke:#4e7687;}</style></defs><title>Строители</title><path class="cls-1" d="M233.37,97.56s-5.7,45.08-8,49.8-3.82,4.77-3.82,4.77l2.11-37.34L227.83,96Z"/><path class="cls-2" d="M153.2,652.7v17.78H73.49V670a11.45,11.45,0,0,1,.28-2.2,20.77,20.77,0,0,1,18.1-16.17l25.44-2.8a4.14,4.14,0,0,1,4,.38c4.78,4.18,10,11,24.63,3.6C147.05,652.28,153,651.7,153.2,652.7Z"/><rect class="cls-3" x="73.49" y="670.48" width="79.71" height="12.33" transform="translate(226.68 1353.29) rotate(-180)"/><path class="cls-3" d="M261,213.15c-4-.85-22.41,123.12-21.25,144.91l-108.65,1.12c-4.67-45.87-11.2-95.3-14.54-144.5,13.72-5.26,41.69-15.88,55.75-21.27l17.68.22,17.21-.22S253.83,211,261,213.15Z"/><path class="cls-4" d="M99.48,650.79l30.79-299.44H239.63l.75,59,15.15,242.29-57.73,11-15-254H177.5c0,.78-20.72,250-20.72,250Z"/><path class="cls-5" d="M170.39,193.93l7.93,29.65c1.78,3.7,9.59,3.82,11.48.17l19.27-29.82V171.86l-27.9-1.13-10.5-.43,0,2.12-.11,9.47Z"/><g id="Face_02"><path class="cls-6" d="M170.53,180.15c3.82,2.47,38.54,7.2,38.54,7.2V170.13L181.17,169l-10.53,1.7Z"/><g id="ears"><path class="cls-7" d="M153.86,132,154.93,117l-6-.43c-3.15-.22-6,3.24-6.34,8.22-.44,7.27,1.88,9.8,5,10l6.12.44C153.75,134.19,153.78,133.09,153.86,132Z"/><path class="cls-6" d="M154.7,122.29l-3.25-.24a3.67,3.67,0,0,0-3.65,3.64h0a3.66,3.66,0,0,0,3.09,4.12l3.26.24Z"/><path class="cls-7" d="M221.91,136.87,223,121.93l6,.43c3.15.22,5.52,4.06,5.1,9-.61,7.25-3.27,9.43-6.41,9.2l-6.12-.44C221.71,139.08,221.83,138,221.91,136.87Z"/><path class="cls-6" d="M222.46,127.16l3.26.23a3.68,3.68,0,0,1,3.09,4.13h0a3.66,3.66,0,0,1-3.65,3.63l-3.26-.23Z"/></g><path id="Face" class="cls-5" d="M199.05,76.43l-13.92-1C169.66,74.32,156,87.79,154.7,105.38l-3.25,45.16c-.39,5.35,2.29,16.38,10,24.19a17.73,17.73,0,0,0,11.35,5.19l17.06,1.17a17.71,17.71,0,0,0,11.86-3.52c8.77-6.61,19.52-16.65,19.9-22l3.25-45.17C226.15,92.84,214.53,77.54,199.05,76.43Z"/><path id="nose" class="cls-6" d="M178.29,148a30.68,30.68,0,0,1-7.4-1.41c-.85-.28-1.77.16-1.38.66,1.39,1.83,4.64,3.7,8.55,4s7.39-1.1,9-2.72c.45-.44-.39-1-1.27-.84A31.11,31.11,0,0,1,178.29,148Z"/><g id="Eyes"><g id="Eye_L"><circle class="cls-8" cx="163.63" cy="125.28" r="5.03" transform="translate(26.94 279.51) rotate(-85.89)"/><path class="cls-9" d="M166.06,125.45a1.43,1.43,0,0,1-.44-2.74,3.25,3.25,0,1,0,1.25,2.8,1.93,1.93,0,0,0,0-.24A1.35,1.35,0,0,1,166.06,125.45Z"/></g><g id="Eye_R"><circle class="cls-8" cx="200.57" cy="127.94" r="5.03" transform="translate(58.57 318.81) rotate(-85.89)"/><path class="cls-9" d="M203,128.11a1.43,1.43,0,0,1-1.33-1.53,1.45,1.45,0,0,1,.88-1.22,3.26,3.26,0,0,0-5.23,2.34,3.25,3.25,0,1,0,6.49.47v-.25A1.41,1.41,0,0,1,203,128.11Z"/></g></g><g id="Brows"><path class="cls-1" d="M155.93,119.62a1.08,1.08,0,0,1-.34-2.08,15.78,15.78,0,0,1,3-1c2.29-.26,10.67.48,11,.51a1.09,1.09,0,0,1-.17,2.17h0a101.51,101.51,0,0,0-10.59-.52,17,17,0,0,0-2.39.82A.94.94,0,0,1,155.93,119.62Z"/><path class="cls-1" d="M209,123.44a1,1,0,0,1-.48-.15,15.45,15.45,0,0,0-2.25-1.15,97.29,97.29,0,0,0-10.55-1,1.09,1.09,0,0,1-1-1.15,1.07,1.07,0,0,1,1.14-1c.36,0,8.75.48,11,1.07a17,17,0,0,1,2.8,1.39,1.09,1.09,0,0,1-.63,2Z"/></g><path id="Hair" class="cls-10" d="M223.48,126s22.68-32.5,5.34-52.82C220.15,63,191.85,53.57,170.39,63c-2,.89-14.63,8.93-15.69,10.74-8.2,14.08-1.06,45.6-1.06,45.6,4-22.09,4.49-29.68,11-33.77,3.23-2,13.28,9.46,16.82,9.46,10.55,0,14-1.08,16.33-1.9,7.6-2.62,11.42-6.59,16.87-4.63,8.37,3,8.57,13.52,8.89,20.63C223.89,117.6,223.48,126,223.48,126Z"/><path id="Mouth" class="cls-11" d="M178.13,159.68c-6.34-.45-11.92-1.78-15.38-4-.31-.2-.74,0-.7.33.92,6.56,7.32,11.95,15.45,12.53s15.24-3.83,17.08-10.2c.09-.31-.31-.58-.65-.42C190.19,159.63,184.48,160.14,178.13,159.68Z"/></g><path class="cls-2" d="M201,667.09V676h50.94v-8.89a19.75,19.75,0,0,0-19.75-19.75H220.69A19.74,19.74,0,0,0,201,667.09Z"/><rect class="cls-3" x="200.95" y="671.16" width="50.94" height="11.65"/><path class="cls-12" d="M149.91,524.9s-15.13,11.07-28.08-6"/><path class="cls-12" d="M235.58,529.65s-15.13,11.08-28.08-6"/><path class="cls-5" d="M304.25,335.5a48.7,48.7,0,0,0-3-18.05c-8.44-23-33-89.89-35.09-95.46-2.57-6.73-17.54-3.46-17.54-3.46-10.34,2-16.77,11.34-14,20.42,0,0,38.42,97.2,38.56,98.45,2.54,23,7,78.31,7,78.31s24.58,16.56,20.08.65C299.72,414.63,303.62,360.36,304.25,335.5Z"/><path class="cls-3" d="M225.81,233.2c-.6-11.66,9.51-21.67,22.58-22.34,11.59-.6,21.6,6.36,24.14,16.08h0l12.21,40.65-45.42,11.86-12.12-40A19.17,19.17,0,0,1,225.81,233.2Z"/><path class="cls-5" d="M299.61,419.61a48,48,0,0,1,3.19,13.61c.38,5.29-4.16,16.87-6.7,22.86a3.06,3.06,0,0,1-4.78,1.14h0s-5.14,8.35-7,4.7,0-7.57,0-7.57-1,10.78-4.62,8.49c-4-2.48,7.86-21.49,2.23-24.92-4.17-2.54-3.45,13.57-8.21,14.61s-2-17.15,2-29.06c3.49-10.47,3.91-11.84,3.91-11.84Z"/><path class="cls-13" d="M295.28,444.47a111.5,111.5,0,0,1-4,12.75"/><path class="cls-13" d="M288.36,441s-3.61,14.57-4.86,17.84"/><path class="cls-14" d="M241.24,381.14a2.14,2.14,0,0,1-2.19,2.12l-109.39-1a2.84,2.84,0,0,1-2.85-3.22l.79-12.87a1.78,1.78,0,0,1,1.8-1.64l109.54.52a2.14,2.14,0,0,1,2.16,2.08Z"/><path class="cls-15" d="M233,384.13s5.64-19.44-2.28-22.47-16.06.56-16.06.56l5.9,22.24Z"/><path class="cls-14" d="M254.34,433.89c.18,2.79-3.13,4.95-7.38,4.81l-33.08-1.05-5.67-.18c-4.24-.14-7.81-2.51-8-5.29L197.35,384l-.11-1.87a4,4,0,0,1,2.3-3.66,9.54,9.54,0,0,1,5.08-1.14l4.73.15,2.1.07,29.33.93,2.59.08c.41,0,.83.05,1.23.1a8.94,8.94,0,0,1,6,3.14h0a3.8,3.8,0,0,1,.76,2l.66,10.91Z"/><path class="cls-15" d="M213.88,437.65l-5.67-.18c-4.24-.14-7.81-2.51-8-5.29L197.35,384l-.11-1.87a4,4,0,0,1,2.3-3.66,9.54,9.54,0,0,1,5.08-1.14l6.83.22Z"/><line class="cls-16" x1="213.81" y1="407.11" x2="249.59" y2="407.82"/><line class="cls-16" x1="213.88" y1="414.76" x2="249.66" y2="415.47"/><line class="cls-17" x1="249.59" y1="263.41" x2="244.41" y2="295.09"/><path class="cls-5" d="M127.67,362.09l-21.52,7.63s-42.55-31-50.48-46.17S74.18,291.76,82,298.34C89.49,304.66,127.67,362.09,127.67,362.09Z"/><path class="cls-5" d="M130.67,216.3s-13.38-5.73-17.3.32-57.92,91.95-57.92,91.95c-3.08,5.78-.76,15.74,10.23,20.52h0c6.68,3.78,15.17,2.09,18.95-3.77l55.48-86.11c4.57-8.31.25-18.79-9.44-22.91h0"/><path class="cls-3" d="M147.85,240.37c3-11.28-4.35-26.55-17.36-28-12.16-1.3-22.49,3.06-27,12h0L83,261.64l41.92,21.12,20.24-36.57A19.2,19.2,0,0,0,147.85,240.37Z"/><path class="cls-5" d="M110.48,338s9.58,16.89,12.75,17.19,7.26-3.31,14.18-1.93,14.35,8,15.12,11.3-2.83,4.86-2.83,4.86l-1.75-.27s4.5,2.3,3.09,6.24-6.61,2.92-9.94.06c0,0,6.26,5.77,2.68,7.26s-4.62-5.19-12.47-5.79-13.58,1.81-17-.25-16.26-15.18-16.26-15.18Z"/><path class="cls-13" d="M134.26,372s9,4.24,11.15,6.78"/><path class="cls-13" d="M137.43,362.22s9,4.24,11.15,6.78"/><line class="cls-13" x1="79.78" y1="311.33" x2="93.56" y2="312.69"/><polyline class="cls-17" points="227.44 207.24 207.12 232.51 200.18 218.29"/><polyline class="cls-17" points="151.41 204.31 166.86 231.64 173.8 217.42"/><path class="cls-17" d="M125.35,258.73s-1.84,23.78-1.22,29.48"/></svg>