<?xml version="1.0" encoding="utf-8"?>
<svg viewBox="0 0 1836 1339.78" xmlns="http://www.w3.org/2000/svg">
  <defs>
    <style>.cls-1,.cls-24,.cls-4,.cls-41,.cls-9{fill:none;}.cls-2{isolation:isolate;}.cls-3{fill:#9e6751;}.cls-4{stroke:#47333f;stroke-width:5px;}.cls-24,.cls-4,.cls-41,.cls-9{stroke-miterlimit:10;}.cls-5{fill:#47333f;}.cls-6{fill:#b19c61;}.cls-7{fill:#8b5e48;}.cls-8{fill:#ccb56e;}.cls-9{stroke:#2c4222;}.cls-24,.cls-41,.cls-9{stroke-width:3px;}.cls-10,.cls-11,.cls-30,.cls-33,.cls-35,.cls-39{fill:#fff;}.cls-10{opacity:0.22;}.cls-11,.cls-29{opacity:0.43;}.cls-12{fill:#7f5233;}.cls-13{fill:#2e2a29;}.cls-14{fill:#c1c8c9;}.cls-15{fill:#877f7c;}.cls-16{fill:#93613d;}.cls-17{fill:#a5a09f;}.cls-18{clip-path:url(#clip-path);}.cls-19{fill:#bfb5b2;}.cls-20{fill:#543520;}.cls-21{fill:#556322;}.cls-22{fill:#f88720;}.cls-23{fill:#cfd9ec;}.cls-24{stroke:#af5127;}.cls-25,.cls-26{fill:#af5127;}.cls-26{opacity:0.46;mix-blend-mode:multiply;}.cls-27{fill:#42637d;}.cls-28{fill:#1e3744;}.cls-29{fill:#d0daed;}.cls-30{opacity:0.18;}.cls-31{fill:#abd160;}.cls-32{fill:#97b555;}.cls-33,.cls-35{font-size:122.21px;font-family:MyriadPro-Regular, Myriad Pro;}.cls-34{letter-spacing:0em;}.cls-35{letter-spacing:-0.01em;}.cls-36{letter-spacing:-0.08em;}.cls-37{letter-spacing:0em;}.cls-38{letter-spacing:0.02em;}.cls-40{fill:#d3e1f4;}.cls-41{stroke:#1e3744;}.cls-42{fill:#1c2c36;}</style>
    <clipPath id="clip-path">
      <rect class="cls-1" x="743.37" y="524.4" width="42.85" height="13.18" transform="translate(-133.33 285.56) rotate(-19.49)"/>
    </clipPath>
  </defs>
  <title>Пак_1_1</title>
  <g class="cls-2">
    <g id="вывоз_мусора" data-name="вывоз мусора">
      <g id="шкаф">
        <rect class="cls-3" x="709.69" y="192.37" width="379.69" height="679.89" rx="6.6" transform="translate(49.15 -75.44) rotate(4.94)"/>
        <rect class="cls-4" x="766.44" y="243.47" width="279.76" height="548.83" rx="18.5" transform="translate(47.93 -76.08) rotate(4.94)"/>
        <line class="cls-4" x1="931.24" y1="245.13" x2="885.49" y2="787.21"/>
      </g>
      <g id="диван">
        <polygon class="cls-5" points="229.62 569.38 215.86 565.95 223.11 521.1 244.29 526.39 229.62 569.38"/>
        <polygon class="cls-5" points="765.54 703.16 751.79 699.73 759.04 654.88 780.22 660.17 765.54 703.16"/>
        <path class="cls-6" d="M809.56,476l-17.47,70L241.78,408.65l17.46-70a116.6,116.6,0,0,1,141.38-84.88c27.57,6.88,56.12,22.09,56.12,22.09,1-3.82,12.84-4,30.77-1.83,14.64,1.79,33.33,5.19,53.4,9.52,67.66,14.6,151.08,39.87,148.46,50.37,0,0,24.74-1.9,42.19,2.46C794,352,825.16,413.55,809.56,476Z"/>
        <polygon class="cls-7" points="822.93 543.46 226.2 394.5 194.57 521.03 791.34 670 822.93 543.46"/>
        <rect class="cls-8" x="188.87" y="275.04" width="81.62" height="199.03" rx="36.24" transform="translate(97.55 -44.47) rotate(14.02)"/>
        <rect class="cls-8" x="783.28" y="423.41" width="81.62" height="198.46" rx="36.24" transform="translate(151.11 -184.03) rotate(14.02)"/>
        <path class="cls-8" d="M791.79,616.83,219.86,474.07a34,34,0,0,1-24.73-41.19l3.31-13.28a34,34,0,0,1,41.19-24.73l176,43.93L648.73,497l162.83,40.64a34,34,0,0,1,24.73,41.2L833,592.1A34,34,0,0,1,791.79,616.83Z"/>
        <line class="cls-9" x1="448.85" y1="305.71" x2="419.97" y2="421.4"/>
        <line class="cls-9" x1="683.03" y1="359.57" x2="654.15" y2="475.26"/>
        <circle class="cls-9" cx="561.53" cy="390.69" r="5.51"/>
        <circle class="cls-9" cx="751.02" cy="440.92" r="5.51"/>
        <circle class="cls-9" cx="355.71" cy="347.8" r="5.51"/>
        <path class="cls-10" d="M556.41,287a77.66,77.66,0,0,1-7.76,26.11c-10,19.06-13.21,18.58-26.61,12.87s-24.25,54.6-35.48,48.67,14.42-57.38,8.81-71-12.82,6.42-16.81-3.19c-2.68-6.41,1.76-18.85,5-26.44C503.54,276.48,529,281.11,556.41,287Z"/>
        <path class="cls-11" d="M455.14,378.24s-16.83,24.65-5.61,24.91S455.14,378.24,455.14,378.24Z"/>
      </g>
      <g id="велик">
        <rect class="cls-12" x="661.29" y="439.97" width="214.27" height="9.89" transform="translate(-31.89 829.51) rotate(-55.74)"/>
        <polygon class="cls-12" points="681.08 465.44 822.84 341.14 816.32 333.7 677.53 455.4 681.08 465.44"/>
        <path class="cls-13" d="M825.41,343.93a4.11,4.11,0,0,1-.61,5.79h0a4.11,4.11,0,0,1-5.79-.61L786.86,309.4a4.13,4.13,0,0,1,.61-5.8h0a4.11,4.11,0,0,1,5.79.61Z"/>
        <path class="cls-14" d="M587.13,451.37a90.73,90.73,0,0,0-60.28,81.74q4.1.39,8.21.74A82.37,82.37,0,0,1,692.6,503.22l7.79-2.76A90.76,90.76,0,0,0,587.13,451.37Z"/>
        <path class="cls-13" d="M646.59,615.08a83.51,83.51,0,1,1,50.87-106.59,83.62,83.62,0,0,1-50.87,106.59M594.85,468.87a71.58,71.58,0,1,0,91.36,43.6,71.66,71.66,0,0,0-91.36-43.6"/>
        <path class="cls-15" d="M594.4,467.58A73,73,0,1,0,687.51,512a73,73,0,0,0-93.11-44.43M641,599.32a66.8,66.8,0,1,1,40.68-85.25A66.86,66.86,0,0,1,641,599.32"/>
        <rect class="cls-12" x="568.07" y="460.97" width="133.51" height="8.24" transform="translate(75.01 1018.19) rotate(-80.88)"/>
        <path class="cls-14" d="M817.25,465.11l-7.77,2.75c-16.85-47.6,7.83-98.29,54.38-114.77a90,90,0,0,1,24.47-5.23l.45,8.11a81.17,81.17,0,0,0-22.15,4.95C824.36,375.88,801.87,421.65,817.25,465.11Z"/>
        <path class="cls-13" d="M921.62,517.75a83.51,83.51,0,1,1,50.87-106.59,83.61,83.61,0,0,1-50.87,106.59M869.88,371.54a71.58,71.58,0,1,0,91.36,43.6,71.66,71.66,0,0,0-91.36-43.6"/>
        <path class="cls-15" d="M869.42,370.25a73,73,0,1,0,93.11,44.44,73,73,0,0,0-93.11-44.44M916,502a66.8,66.8,0,1,1,40.69-85.25A66.87,66.87,0,0,1,916,502"/>
        <polygon class="cls-16" points="809.46 320.24 796.08 324.97 891.8 437.89 901.92 429.31 809.46 320.24"/>
        <path class="cls-17" d="M912.6,432.36a13.18,13.18,0,1,1-16.83-8,13.18,13.18,0,0,1,16.83,8"/>
        <path class="cls-13" d="M905.94,434.42a5.66,5.66,0,1,1-7.23-3.45,5.67,5.67,0,0,1,7.23,3.45"/>
        <polygon class="cls-16" points="631.81 383.98 720.49 532.36 728.98 527.29 641.32 380.62 631.81 383.98"/>
        <path class="cls-14" d="M715.56,489.49,617.1,514.81A19.64,19.64,0,0,0,624,553.45L725.15,543a27.19,27.19,0,1,0-9.59-53.53Zm18.59,24.3a14,14,0,0,1-9.08,15.67,14.29,14.29,0,0,1-1.84.51L622.67,540.34l-.42,0A6.46,6.46,0,0,1,620,527.68L718.3,502.4A14,14,0,0,1,734.15,513.79Z"/>
        <path class="cls-15" d="M738.47,508.67a22.15,22.15,0,1,1-28.28-13.5A22.16,22.16,0,0,1,738.47,508.67Z"/>
        <path class="cls-17" d="M632.36,529.78a13.18,13.18,0,1,1-16.83-8,13.18,13.18,0,0,1,16.83,8"/>
        <path class="cls-13" d="M625.7,531.85a5.66,5.66,0,1,1-7.23-3.46,5.67,5.67,0,0,1,7.23,3.46"/>
        <path class="cls-13" d="M771.61,531.28A2.06,2.06,0,0,1,769,532.6l-49.39-16a2.07,2.07,0,0,1-1.32-2.6l.26-.78a2.06,2.06,0,0,1,2.59-1.32l49.39,16a2.06,2.06,0,0,1,1.32,2.59Z"/>
        <g class="cls-18">
          <path class="cls-15" d="M785,523.85a6.6,6.6,0,0,1-4,8.41l-28,9.9a6.59,6.59,0,0,1-4.39-12.43l28-9.9a6.6,6.6,0,0,1,8.42,4"/>
          <path class="cls-19" d="M770.63,528.93a6.18,6.18,0,1,1-7.89-3.76,6.19,6.19,0,0,1,7.89,3.76"/>
        </g>
        <path class="cls-20" d="M679.27,360.94c2,5.58-1.81,9.26-7.39,11.23l-54.39,19.25c-5.57,2-11.93-1.61-13.9-7.19h0a11,11,0,0,1,6.4-14l57.19-11.31c5.58-2,10.12-3.55,12.09,2Z"/>
        <path class="cls-13" d="M794.15,306.41a3.72,3.72,0,0,1-2.89,4.37l-57.33,10.76a3.72,3.72,0,0,1-4.38-2.89l-.16-.8a3.71,3.71,0,0,1,2.89-4.38l57.32-10.76A3.72,3.72,0,0,1,794,305.6Z"/>
        <path class="cls-20" d="M760.28,305.34,730,310.57a7,7,0,0,0-5.45,8.27l.16.81A7,7,0,0,0,733,325.1l30.27-5.22Z"/>
      </g>
      <polygon class="cls-21" points="1055.45 594.7 1055.45 908.39 308.23 908.39 308.23 963.02 1055.45 963.02 1055.45 963.02 1115.37 963.02 1115.37 963.02 1115.37 908.39 1115.37 594.7 1055.45 594.7"/>
      <path class="cls-22" d="M1674.71,934.7c.58,14.67-9.34,27-21.81,27L1115.37,963V449.32c0-8.6,5.92-15.56,13.22-15.56H1273c26.31,0,51.24,13.81,68,37.7L1508.37,709.8l120.39,57.66c24.37,11.67,40.78,39,42,69.91l3,75.83Z"/>
      <path class="cls-23" d="M1673.84,920.72h-25.35a14.44,14.44,0,0,1-14.07-11.17l-8.26-35.5a14.44,14.44,0,0,1,14.07-17.72h30.56Z"/>
      <polygon class="cls-24" points="1168.11 962.63 1168.11 624.26 1336.88 624.26 1447.44 720.69 1447.44 964.53 1168.11 962.63"/>
      <path class="cls-25" d="M1282.79,759.32a12.33,12.33,0,0,1-12.34,12.34h-49.33a12.33,12.33,0,0,1-11.46-7.72v0a12.34,12.34,0,0,1,11.47-16.9h49.33A12.33,12.33,0,0,1,1282.79,759.32Z"/>
      <path class="cls-26" d="M1281.92,763.9a12.35,12.35,0,0,1-11.47,7.76h-49.33a12.33,12.33,0,0,1-11.46-7.72v0Z"/>
      <path class="cls-27" d="M1190.92,725.69c-12.18,0-22.1-11.1-22.1-24.74V526.27c0-18.34,13.22-33.4,29.47-33.58l54.2-.68,31.57-.34q1.26,0,2.52.06c17.37.89,33.08,10.64,43.11,26.76l113,168.3a27,27,0,0,1,.6,27.3c-4,7.27-11,11.6-18.74,11.6Z"/>
      <path class="cls-28" d="M1284.07,496.67c.75,0,1.51,0,2.26.06,15.56.8,30,9.77,39.16,24.47l29.29,43.6,83.71,124.63c8.12,13.07,0,31.26-13.89,31.26H1190.92c-9.44,0-17.1-8.84-17.1-19.74V526.27c0-15.67,10.94-28.43,24.52-28.58l54.22-.68,31-.34h.47m0-10h-.6l-31,.34-54.23.68a33,33,0,0,0-24.82,12,40.77,40.77,0,0,0-9.58,26.62V701c0,16.4,12.16,29.74,27.1,29.74H1424.6c9.53,0,18.17-5.29,23.11-14.17a32,32,0,0,0-.72-32.37l-.1-.15-.1-.15-83.71-124.63-29.19-43.45c-10.76-17.22-28.33-28.07-47-29-1-.05-1.9-.07-2.78-.07Z"/>
      <path class="cls-29" d="M1225.44,558V665.39c0,6.7,4.71,12.14,10.51,12.14h143.62c8.56,0,13.53-11.19,8.54-19.22l-64.33-103.4c-6-9.56-15.55-15.18-25.75-15.07l-57.52.63C1232.17,540.56,1225.44,548.4,1225.44,558Z"/>
      <path class="cls-30" d="M1354.78,564.8l-83.54,155.89h-80.32c-9.44,0-17.1-8.84-17.1-19.74v-66L1260.88,497l25.45-.28c15.56.8,30,9.77,39.16,24.47Z"/>
      <rect class="cls-31" x="161.96" y="526.01" width="941.08" height="419.39"/>
      <rect class="cls-32" x="161.96" y="882" width="941.08" height="63.41"/>
      <rect class="cls-32" x="161.27" y="523.79" width="941.08" height="63.41"/>
      <g id="текст">
        <text class="cls-33" transform="translate(215.86 712.93)" style="font-family: 'Anek Bangla'; white-space: pre;"><tspan>SAME DAY</tspan><tspan x="0" dy="1em">​</tspan><tspan>SERVICES</tspan></text>
      </g>
      <g id="знак">
        <path class="cls-39" d="M872.72,802.28H824.67l20.73-35.82L861,775.55a1.18,1.18,0,0,0,.55.14,1.1,1.1,0,0,0,.62-.19,1.09,1.09,0,0,0,.45-1.07l-8.15-50.93a1.06,1.06,0,0,0-.53-.77,1.12,1.12,0,0,0-.93-.08l-48.27,18.17a1,1,0,0,0-.7.92,1.07,1.07,0,0,0,.53,1l14.54,8.45-31.28,54.17a14.49,14.49,0,0,0,5.3,19.79l9.09,5.3a17.09,17.09,0,0,0,8.59,2.32h61.87a1.08,1.08,0,0,0,1.08-1.09V803.37A1.08,1.08,0,0,0,872.72,802.28Zm-51.14-50.92h0Z"/>
        <path class="cls-39" d="M1015.65,796.24l-30.76-53.66a1.06,1.06,0,0,0-.66-.51,1.1,1.1,0,0,0-.83.1l-24.58,14.1a1.08,1.08,0,0,0-.4,1.48l23.89,41.68-41.39-.16.1-18.09a1.08,1.08,0,0,0-1.77-.85l-40.13,32.4a1.08,1.08,0,0,0,0,1.69l39.77,32.85a1.1,1.1,0,0,0,.69.25,1,1,0,0,0,.46-.11,1.08,1.08,0,0,0,.63-1l.09-16.81,62.56.19h.05a14.5,14.5,0,0,0,14.48-14.44l.08-10.52A17,17,0,0,0,1015.65,796.24Z"/>
        <path class="cls-39" d="M922.55,700.08l-15.35,9.58a1.1,1.1,0,0,0-.51,1.05,1.09,1.09,0,0,0,.73.9l48.85,16.6a1,1,0,0,0,.35.06,1.06,1.06,0,0,0,.57-.17,1.08,1.08,0,0,0,.51-.78l6.5-51.18a1.09,1.09,0,0,0-.5-1,1.06,1.06,0,0,0-1.16,0L948.29,684,915,631a14.52,14.52,0,0,0-20-4.56L886.1,632a17.13,17.13,0,0,0-6.07,6.52l-28.91,54.69a1.1,1.1,0,0,0,.46,1.47l25.06,13.24a1,1,0,0,0,.5.13,1.1,1.1,0,0,0,1-.58L900.56,665Z"/>
      </g>
      <rect class="cls-27" x="294.13" y="961.84" width="1374.61" height="84.59"/>
      <rect class="cls-22" x="711.8" y="999.98" width="33.92" height="9.4"/>
      <rect class="cls-22" x="1615.88" y="999.98" width="33.92" height="9.4"/>
      <rect class="cls-22" x="327.17" y="999.98" width="33.92" height="9.4"/>
      <path class="cls-27" d="M708.88,1039.62c0,2.22,0,4.42-.14,6.61H396.3c-.11-2.19-.15-4.39-.15-6.61a156.37,156.37,0,0,1,312.73,0Z"/>
      <path class="cls-28" d="M692,1046.23l0-.53a137.15,137.15,0,0,0-274.07,0l0,.53Z"/>
      <circle class="cls-27" cx="554.95" cy="1051.24" r="110.71"/>
      <path class="cls-28" d="M614.51,1051.24a59.52,59.52,0,1,1-5.07-24.08A59.56,59.56,0,0,1,614.51,1051.24Z"/>
      <path class="cls-40" d="M614.51,1051.24a59.55,59.55,0,0,1-107.67,35.1,59.57,59.57,0,0,1,102.6-59.18A59.35,59.35,0,0,1,614.51,1051.24Z"/>
      <circle class="cls-41" cx="554.95" cy="1051.24" r="12.07"/>
      <path class="cls-41" d="M468.72,1070.38s7.59,43.46,53.81,58.63"/>
      <path class="cls-27" d="M1572.42,1039.62c0,2.22,0,4.42-.14,6.61H1259.84c-.11-2.19-.15-4.39-.15-6.61a156.37,156.37,0,0,1,312.73,0Z"/>
      <path class="cls-28" d="M1555.55,1046.23l0-.53a137.15,137.15,0,0,0-274.07,0l0,.53Z"/>
      <circle class="cls-27" cx="1418.48" cy="1051.24" r="110.71"/>
      <path class="cls-28" d="M1478.05,1051.24a59.55,59.55,0,1,1-5.08-24.08A59.57,59.57,0,0,1,1478.05,1051.24Z"/>
      <path class="cls-40" d="M1478.05,1051.24a59.55,59.55,0,0,1-107.67,35.1A59.56,59.56,0,0,1,1473,1027.16,59.2,59.2,0,0,1,1478.05,1051.24Z"/>
      <circle class="cls-41" cx="1418.49" cy="1051.24" r="12.07"/>
      <path class="cls-41" d="M1332.26,1070.38s7.59,43.46,53.8,58.63"/>
      <path class="cls-42" d="M1412.25,612.32h17.69a0,0,0,0,1,0,0v130a0,0,0,0,1,0,0h-17.69a26.81,26.81,0,0,1-26.81-26.81V639.12A26.81,26.81,0,0,1,1412.25,612.32Z"/>
    </g>
  </g>
</svg>